<svg width="100" height="100" viewBox="0 0 100 100" fill="none" xmlns="http://www.w3.org/2000/svg">
<g filter="url(#filter0_b_201_1184)">
<path fill-rule="evenodd" clip-rule="evenodd" d="M53.5833 14.0833C53.5833 12.3805 52.2029 11 50.5 11C48.7971 11 47.4167 12.3805 47.4167 14.0833V77.4389L37.2874 67.0846C36.0966 65.8673 34.1445 65.8459 32.9272 67.0367C31.7099 68.2275 31.6885 70.1796 32.8793 71.3969L48.2959 87.1562C48.876 87.7491 49.6705 88.0833 50.5 88.0833C51.3295 88.0833 52.124 87.7491 52.7041 87.1562L68.1207 71.3969C69.3115 70.1796 69.2901 68.2275 68.0728 67.0367C66.8555 65.8459 64.9034 65.8673 63.7126 67.0846L53.5833 77.4389V14.0833Z" fill="black"/>
</g>
<defs>
<filter id="filter0_b_201_1184" x="-214.667" y="-235.667" width="530.333" height="570.417" filterUnits="userSpaceOnUse" color-interpolation-filters="sRGB">
<feFlood flood-opacity="0" result="BackgroundImageFix"/>
<feGaussianBlur in="BackgroundImage" stdDeviation="123.333"/>
<feComposite in2="SourceAlpha" operator="in" result="effect1_backgroundBlur_201_1184"/>
<feBlend mode="normal" in="SourceGraphic" in2="effect1_backgroundBlur_201_1184" result="shape"/>
</filter>
</defs>
</svg>
