<svg width="100" height="100" viewBox="0 0 100 100" fill="none" xmlns="http://www.w3.org/2000/svg">
<path fill-rule="evenodd" clip-rule="evenodd" d="M28.7495 9.75054C28.2689 9.26998 27.6171 9 26.9375 9C26.2579 9 25.6061 9.26998 25.1255 9.75054C24.645 10.2311 24.375 10.8829 24.375 11.5625V14.125H19.25C16.5315 14.125 13.9244 15.2049 12.0022 17.1272C10.0799 19.0494 9 21.6565 9 24.375V29.5H91V24.375C91 21.6565 89.9201 19.0494 87.9978 17.1272C86.0756 15.2049 83.4685 14.125 80.75 14.125H75.625V11.5625C75.625 10.8829 75.355 10.2311 74.8745 9.75054C74.3939 9.26998 73.7421 9 73.0625 9C72.3829 9 71.7311 9.26998 71.2505 9.75054C70.77 10.2311 70.5 10.8829 70.5 11.5625V14.125H29.5V11.5625C29.5 10.8829 29.23 10.2311 28.7495 9.75054ZM91 80.75V34.625H9V80.75C9 83.4685 10.0799 86.0756 12.0022 87.9978C13.9244 89.9201 16.5315 91 19.25 91H80.75C83.4685 91 86.0756 89.9201 87.9978 87.9978C89.9201 86.0756 91 83.4685 91 80.75ZM51.8759 72.2766C55.1578 72.2766 58.0136 70.9114 60.0168 68.6359L63.0005 71.0768C60.4005 74.097 56.4791 76.0001 51.8759 76.0001C43.5644 76.0001 37.0005 69.5047 37.0005 61.3958C37.0005 53.3283 43.5644 46.7501 51.8759 46.7501C56.4365 46.7501 60.3152 48.6119 62.9152 51.5906L59.9316 53.9902C57.9283 51.8802 55.1152 50.4736 51.8759 50.4736C45.6955 50.4736 40.9644 55.3141 40.9644 61.3958C40.9644 67.4775 45.6955 72.2766 51.8759 72.2766Z" fill="black"/>
</svg>
