<svg width="100" height="100" viewBox="0 0 100 100" fill="none" xmlns="http://www.w3.org/2000/svg">
<path d="M89.0357 18H11.9643C10.3247 18 9 19.3 9 20.9091V79.0909C9 80.7 10.3247 82 11.9643 82H89.0357C90.6753 82 92 80.7 92 79.0909V20.9091C92 19.3 90.6753 18 89.0357 18ZM81.5509 27.9L52.3249 50.2182C51.6023 50.7727 50.5926 50.7727 49.8701 50.2182L20.6348 27.9C20.5246 27.8165 20.4438 27.7013 20.4037 27.5705C20.3635 27.4397 20.3661 27.2998 20.4111 27.1705C20.456 27.0412 20.541 26.929 20.6543 26.8495C20.7675 26.77 20.9032 26.7273 21.0424 26.7273H81.1433C81.2825 26.7273 81.4182 26.77 81.5315 26.8495C81.6447 26.929 81.7297 27.0412 81.7747 27.1705C81.8196 27.2998 81.8222 27.4397 81.7821 27.5705C81.7419 27.7013 81.6611 27.8165 81.5509 27.9Z" fill="black"/>
</svg>
