<svg width="100" height="100" viewBox="0 0 100 100" fill="none" xmlns="http://www.w3.org/2000/svg">
<path fill-rule="evenodd" clip-rule="evenodd" d="M26.6434 91H8.77246V38.894H26.6434V91Z" fill="black"/>
<path fill-rule="evenodd" clip-rule="evenodd" d="M17.6582 27.3163H17.5567C12.2236 27.3163 8.77588 23.4548 8.77588 18.629C8.77588 13.701 12.3286 9.94763 17.7629 9.94763C23.1972 9.94763 26.5438 13.701 26.6469 18.629C26.6469 23.4548 23.1972 27.3163 17.6582 27.3163Z" fill="black"/>
<path fill-rule="evenodd" clip-rule="evenodd" d="M92.1696 90.9987H74.6088V63.7622C74.6088 56.921 72.0675 52.2527 65.7102 52.2527C60.8584 52.2527 57.9686 55.3998 56.6993 58.4395C56.235 59.5288 56.121 61.0466 56.121 62.5681V91H38.5574C38.5574 91 38.7888 44.8679 38.5574 40.0908H56.121V47.3017C58.4519 43.8353 62.6264 38.894 71.9504 38.894C83.5067 38.894 92.1703 46.1718 92.1703 61.8089L92.1696 90.9987Z" fill="black"/>
</svg>
