<svg width="100" height="100" viewBox="0 0 100 100" fill="none" xmlns="http://www.w3.org/2000/svg">
<path d="M50.4999 93C44.4553 87.8536 38.8524 82.2116 33.75 76.133C26.0928 67.0044 17 53.4095 17 40.4547C16.9967 33.8386 18.9598 27.3702 22.6409 21.8681C26.322 16.366 31.5556 12.0776 37.6793 9.54562C43.8031 7.0136 50.5418 6.35178 57.0425 7.64393C63.5433 8.93607 69.5139 12.1241 74.1987 16.8045C77.3178 19.904 79.7901 23.5902 81.4724 27.6498C83.1548 31.7093 84.0138 36.0616 83.9998 40.4547C83.9998 53.4095 74.907 67.0044 67.2499 76.133C62.1474 82.2115 56.5445 87.8535 50.4999 93ZM50.4999 26.1242C46.6922 26.1242 43.0404 27.634 40.3479 30.3215C37.6554 33.009 36.1428 36.654 36.1428 40.4547C36.1428 44.2554 37.6554 47.9004 40.3479 50.5879C43.0404 53.2754 46.6922 54.7852 50.4999 54.7852C54.3077 54.7852 57.9594 53.2754 60.6519 50.5879C63.3444 47.9004 64.857 44.2554 64.857 40.4547C64.857 36.654 63.3444 33.009 60.6519 30.3215C57.9594 27.634 54.3077 26.1242 50.4999 26.1242Z" fill="black"/>
</svg>
