<svg width="100" height="100" viewBox="0 0 100 100" fill="none" xmlns="http://www.w3.org/2000/svg">
<g filter="url(#filter0_b_201_1174)">
<path fill-rule="evenodd" clip-rule="evenodd" d="M50 14C30.1178 14 14 30.1178 14 50C14 69.8822 30.1178 86 50 86C69.8822 86 86 69.8822 86 50C86 30.1178 69.8822 14 50 14ZM40.978 44.5401V55.1431C40.978 59.9037 40.978 62.284 42.5168 63.1422C44.0555 64.0004 46.0807 62.7496 50.131 60.2479L59.2193 54.6345C63.1166 52.2273 65.0653 51.0237 65.0212 49.3004C64.9771 47.5771 62.9693 46.4748 58.9539 44.2703L49.8656 39.2806C45.9034 37.1053 43.9223 36.0177 42.4502 36.8889C40.978 37.76 40.978 40.0201 40.978 44.5401Z" fill="black"/>
</g>
<defs>
<filter id="filter0_b_201_1174" x="-66" y="-66" width="232" height="232" filterUnits="userSpaceOnUse" color-interpolation-filters="sRGB">
<feFlood flood-opacity="0" result="BackgroundImageFix"/>
<feGaussianBlur in="BackgroundImage" stdDeviation="40"/>
<feComposite in2="SourceAlpha" operator="in" result="effect1_backgroundBlur_201_1174"/>
<feBlend mode="normal" in="SourceGraphic" in2="effect1_backgroundBlur_201_1174" result="shape"/>
</filter>
</defs>
</svg>
