<svg width="100" height="100" viewBox="0 0 100 100" fill="none" xmlns="http://www.w3.org/2000/svg">
<path d="M86.2501 56.6825C86.6499 54.4266 86.8644 52.1206 86.8644 49.8145C86.8644 44.7011 85.8893 39.7381 83.9683 35.0758C82.1156 30.564 79.4535 26.5133 76.0698 23.0342C72.7144 19.5754 68.7369 16.8205 64.3586 14.9229C59.8146 12.9477 54.9975 11.9451 50.0244 11.9451C47.6841 11.9451 45.334 12.1757 43.0523 12.6269C39.895 10.9066 36.3769 10.0049 32.8038 10C26.9823 10 21.5021 12.3361 17.3871 16.5672C15.3565 18.6444 13.7466 21.1148 12.6503 23.8356C11.554 26.5565 10.9931 29.4738 11.0001 32.4188C11.0001 36.2288 11.9557 39.9787 13.7402 43.2874C13.3794 45.433 13.1843 47.6288 13.1843 49.8145C13.1843 54.9279 14.1595 59.891 16.0804 64.5532C17.9332 69.065 20.5855 73.1157 23.9692 76.5948C27.3528 80.0739 31.2923 82.8011 35.6804 84.7061C40.2244 86.6813 45.0415 87.6839 50.0146 87.6839C52.1794 87.6839 54.3442 87.4834 56.4699 87.0924C59.7366 88.9873 63.4225 90 67.1962 90C73.0177 90 78.4979 87.6739 82.6129 83.4328C86.7376 79.2017 88.9999 73.5669 88.9999 67.5811C89.0097 63.7711 88.0541 60.0113 86.2501 56.6825ZM50.1706 73.0154C37.0845 73.0154 31.2338 66.398 31.2338 61.445C31.2338 58.8984 33.0573 57.1237 35.5731 57.1237C41.1703 57.1237 39.7271 65.3954 50.1706 65.3954C55.5241 65.3954 58.4787 62.4076 58.4787 59.3495C58.4787 57.5147 57.6011 55.4694 54.0711 54.577L42.4282 51.5892C33.0573 49.1728 31.3508 43.9591 31.3508 39.0663C31.3508 28.8996 40.6632 25.0796 49.41 25.0796C57.4645 25.0796 66.9622 29.6616 66.9622 35.7576C66.9622 38.3745 64.7584 39.8885 62.2426 39.8885C57.4645 39.8885 58.3421 33.0906 48.7177 33.0906C43.9396 33.0906 41.297 35.3165 41.297 38.4948C41.297 41.6731 45.0708 42.6858 48.3472 43.4578L56.9672 45.423C66.4064 47.5887 68.7954 53.2535 68.7954 58.5875C68.7954 66.8392 62.6229 73.0154 50.1706 73.0154Z" fill="black"/>
</svg>
