<svg width="104" height="83" viewBox="0 0 104 83" fill="none" xmlns="http://www.w3.org/2000/svg">
<path opacity="0.3" d="M3.784 69.66C4.672 69.66 5.448 69.832 6.112 70.176C6.784 70.512 7.3 71 7.66 71.64C8.028 72.272 8.212 73.012 8.212 73.86C8.212 74.708 8.028 75.444 7.66 76.068C7.3 76.692 6.784 77.172 6.112 77.508C5.448 77.836 4.672 78 3.784 78H1.06V69.66H3.784ZM3.784 76.884C4.76 76.884 5.508 76.62 6.028 76.092C6.548 75.564 6.808 74.82 6.808 73.86C6.808 72.892 6.548 72.136 6.028 71.592C5.508 71.048 4.76 70.776 3.784 70.776H2.428V76.884H3.784ZM10.6958 72.348C10.8958 72.012 11.1598 71.752 11.4878 71.568C11.8238 71.376 12.2198 71.28 12.6758 71.28V72.696H12.3278C11.7918 72.696 11.3838 72.832 11.1038 73.104C10.8318 73.376 10.6958 73.848 10.6958 74.52V78H9.32781V71.388H10.6958V72.348ZM13.2373 74.664C13.2373 74 13.3733 73.412 13.6453 72.9C13.9253 72.388 14.3013 71.992 14.7733 71.712C15.2533 71.424 15.7813 71.28 16.3573 71.28C16.8773 71.28 17.3293 71.384 17.7133 71.592C18.1053 71.792 18.4173 72.044 18.6493 72.348V71.388H20.0293V78H18.6493V77.016C18.4173 77.328 18.1013 77.588 17.7013 77.796C17.3013 78.004 16.8453 78.108 16.3333 78.108C15.7653 78.108 15.2453 77.964 14.7733 77.676C14.3013 77.38 13.9253 76.972 13.6453 76.452C13.3733 75.924 13.2373 75.328 13.2373 74.664ZM18.6493 74.688C18.6493 74.232 18.5533 73.836 18.3613 73.5C18.1773 73.164 17.9333 72.908 17.6293 72.732C17.3253 72.556 16.9973 72.468 16.6453 72.468C16.2933 72.468 15.9653 72.556 15.6613 72.732C15.3573 72.9 15.1093 73.152 14.9173 73.488C14.7333 73.816 14.6413 74.208 14.6413 74.664C14.6413 75.12 14.7333 75.52 14.9173 75.864C15.1093 76.208 15.3573 76.472 15.6613 76.656C15.9733 76.832 16.3013 76.92 16.6453 76.92C16.9973 76.92 17.3253 76.832 17.6293 76.656C17.9333 76.48 18.1773 76.224 18.3613 75.888C18.5533 75.544 18.6493 75.144 18.6493 74.688ZM24.2501 71.28C24.7621 71.28 25.2141 71.384 25.6061 71.592C26.0061 71.792 26.3181 72.044 26.5421 72.348V71.388H27.9221V78.108C27.9221 78.716 27.7941 79.256 27.5381 79.728C27.2821 80.208 26.9101 80.584 26.4221 80.856C25.9421 81.128 25.3661 81.264 24.6941 81.264C23.7981 81.264 23.0541 81.052 22.4621 80.628C21.8701 80.212 21.5341 79.644 21.4541 78.924H22.8101C22.9141 79.268 23.1341 79.544 23.4701 79.752C23.8141 79.968 24.2221 80.076 24.6941 80.076C25.2461 80.076 25.6901 79.908 26.0261 79.572C26.3701 79.236 26.5421 78.748 26.5421 78.108V77.004C26.3101 77.316 25.9941 77.58 25.5941 77.796C25.2021 78.004 24.7541 78.108 24.2501 78.108C23.6741 78.108 23.1461 77.964 22.6661 77.676C22.1941 77.38 21.8181 76.972 21.5381 76.452C21.2661 75.924 21.1301 75.328 21.1301 74.664C21.1301 74 21.2661 73.412 21.5381 72.9C21.8181 72.388 22.1941 71.992 22.6661 71.712C23.1461 71.424 23.6741 71.28 24.2501 71.28ZM26.5421 74.688C26.5421 74.232 26.4461 73.836 26.2541 73.5C26.0701 73.164 25.8261 72.908 25.5221 72.732C25.2181 72.556 24.8901 72.468 24.5381 72.468C24.1861 72.468 23.8581 72.556 23.5541 72.732C23.2501 72.9 23.0021 73.152 22.8101 73.488C22.6261 73.816 22.5341 74.208 22.5341 74.664C22.5341 75.12 22.6261 75.52 22.8101 75.864C23.0021 76.208 23.2501 76.472 23.5541 76.656C23.8661 76.832 24.1941 76.92 24.5381 76.92C24.8901 76.92 25.2181 76.832 25.5221 76.656C25.8261 76.48 26.0701 76.224 26.2541 75.888C26.4461 75.544 26.5421 75.144 26.5421 74.688ZM33.7241 76.896H36.5441V78H32.3561V69.66H33.7241V76.896ZM43.5081 74.532C43.5081 74.78 43.4921 75.004 43.4601 75.204H38.4081C38.4481 75.732 38.6441 76.156 38.9961 76.476C39.3481 76.796 39.7801 76.956 40.2921 76.956C41.0281 76.956 41.5481 76.648 41.8521 76.032H43.3281C43.1281 76.64 42.7641 77.14 42.2361 77.532C41.7161 77.916 41.0681 78.108 40.2921 78.108C39.6601 78.108 39.0921 77.968 38.5881 77.688C38.0921 77.4 37.7001 77 37.4121 76.488C37.1321 75.968 36.9921 75.368 36.9921 74.688C36.9921 74.008 37.1281 73.412 37.4001 72.9C37.6801 72.38 38.0681 71.98 38.5641 71.7C39.0681 71.42 39.6441 71.28 40.2921 71.28C40.9161 71.28 41.4721 71.416 41.9601 71.688C42.4481 71.96 42.8281 72.344 43.1001 72.84C43.3721 73.328 43.5081 73.892 43.5081 74.532ZM42.0801 74.1C42.0721 73.596 41.8921 73.192 41.5401 72.888C41.1881 72.584 40.7521 72.432 40.2321 72.432C39.7601 72.432 39.3561 72.584 39.0201 72.888C38.6841 73.184 38.4841 73.588 38.4201 74.1H42.0801ZM47.3864 72.504H46.1624V78H44.7824V72.504H44.0024V71.388H44.7824V70.92C44.7824 70.16 44.9824 69.608 45.3824 69.264C45.7904 68.912 46.4264 68.736 47.2904 68.736V69.876C46.8744 69.876 46.5824 69.956 46.4144 70.116C46.2464 70.268 46.1624 70.536 46.1624 70.92V71.388H47.3864V72.504ZM49.9548 72.504V76.164C49.9548 76.412 50.0108 76.592 50.1228 76.704C50.2428 76.808 50.4428 76.86 50.7228 76.86H51.5628V78H50.4828C49.8668 78 49.3948 77.856 49.0668 77.568C48.7388 77.28 48.5748 76.812 48.5748 76.164V72.504H47.7948V71.388H48.5748V69.744H49.9548V71.388H51.5628V72.504H49.9548ZM57.0568 72.504V76.164C57.0568 76.412 57.1128 76.592 57.2248 76.704C57.3448 76.808 57.5448 76.86 57.8248 76.86H58.6648V78H57.5848C56.9688 78 56.4968 77.856 56.1688 77.568C55.8408 77.28 55.6768 76.812 55.6768 76.164V72.504H54.8968V71.388H55.6768V69.744H57.0568V71.388H58.6648V72.504H57.0568ZM62.5536 78.108C61.9296 78.108 61.3656 77.968 60.8616 77.688C60.3576 77.4 59.9616 77 59.6736 76.488C59.3856 75.968 59.2416 75.368 59.2416 74.688C59.2416 74.016 59.3896 73.42 59.6856 72.9C59.9816 72.38 60.3856 71.98 60.8976 71.7C61.4096 71.42 61.9816 71.28 62.6136 71.28C63.2456 71.28 63.8176 71.42 64.3296 71.7C64.8416 71.98 65.2456 72.38 65.5416 72.9C65.8376 73.42 65.9856 74.016 65.9856 74.688C65.9856 75.36 65.8336 75.956 65.5296 76.476C65.2256 76.996 64.8096 77.4 64.2816 77.688C63.7616 77.968 63.1856 78.108 62.5536 78.108ZM62.5536 76.92C62.9056 76.92 63.2336 76.836 63.5376 76.668C63.8496 76.5 64.1016 76.248 64.2936 75.912C64.4856 75.576 64.5816 75.168 64.5816 74.688C64.5816 74.208 64.4896 73.804 64.3056 73.476C64.1216 73.14 63.8776 72.888 63.5736 72.72C63.2696 72.552 62.9416 72.468 62.5896 72.468C62.2376 72.468 61.9096 72.552 61.6056 72.72C61.3096 72.888 61.0736 73.14 60.8976 73.476C60.7216 73.804 60.6336 74.208 60.6336 74.688C60.6336 75.4 60.8136 75.952 61.1736 76.344C61.5416 76.728 62.0016 76.92 62.5536 76.92ZM75.9631 71.388V78H74.5951V77.22C74.3791 77.492 74.0951 77.708 73.7431 77.868C73.3991 78.02 73.0311 78.096 72.6391 78.096C72.1191 78.096 71.6511 77.988 71.2351 77.772C70.8271 77.556 70.5031 77.236 70.2631 76.812C70.0311 76.388 69.9151 75.876 69.9151 75.276V71.388H71.2711V75.072C71.2711 75.664 71.4191 76.12 71.7151 76.44C72.0111 76.752 72.4151 76.908 72.9271 76.908C73.4391 76.908 73.8431 76.752 74.1391 76.44C74.4431 76.12 74.5951 75.664 74.5951 75.072V71.388H75.9631ZM80.8641 71.28C81.3841 71.28 81.8481 71.388 82.2561 71.604C82.6721 71.82 82.9961 72.14 83.2281 72.564C83.4601 72.988 83.5761 73.5 83.5761 74.1V78H82.2201V74.304C82.2201 73.712 82.0721 73.26 81.7761 72.948C81.4801 72.628 81.0761 72.468 80.5641 72.468C80.0521 72.468 79.6441 72.628 79.3401 72.948C79.0441 73.26 78.8961 73.712 78.8961 74.304V78H77.5281V71.388H78.8961V72.144C79.1201 71.872 79.4041 71.66 79.7481 71.508C80.1001 71.356 80.4721 71.28 80.8641 71.28ZM86.4491 69.12V78H85.0811V69.12H86.4491ZM88.7012 70.512C88.4532 70.512 88.2452 70.428 88.0772 70.26C87.9092 70.092 87.8252 69.884 87.8252 69.636C87.8252 69.388 87.9092 69.18 88.0772 69.012C88.2452 68.844 88.4532 68.76 88.7012 68.76C88.9412 68.76 89.1452 68.844 89.3132 69.012C89.4812 69.18 89.5652 69.388 89.5652 69.636C89.5652 69.884 89.4812 70.092 89.3132 70.26C89.1452 70.428 88.9412 70.512 88.7012 70.512ZM89.3732 71.388V78H88.0052V71.388H89.3732ZM93.5452 74.7L96.5932 78H94.7452L92.2972 75.156V78H90.9292V69.12H92.2972V74.28L94.6972 71.388H96.5932L93.5452 74.7ZM103.394 74.532C103.394 74.78 103.378 75.004 103.346 75.204H98.2937C98.3337 75.732 98.5297 76.156 98.8817 76.476C99.2337 76.796 99.6657 76.956 100.178 76.956C100.914 76.956 101.434 76.648 101.738 76.032H103.214C103.014 76.64 102.65 77.14 102.122 77.532C101.602 77.916 100.954 78.108 100.178 78.108C99.5457 78.108 98.9777 77.968 98.4737 77.688C97.9777 77.4 97.5857 77 97.2977 76.488C97.0177 75.968 96.8777 75.368 96.8777 74.688C96.8777 74.008 97.0137 73.412 97.2857 72.9C97.5657 72.38 97.9537 71.98 98.4497 71.7C98.9537 71.42 99.5297 71.28 100.178 71.28C100.802 71.28 101.358 71.416 101.846 71.688C102.334 71.96 102.714 72.344 102.986 72.84C103.258 73.328 103.394 73.892 103.394 74.532ZM101.966 74.1C101.958 73.596 101.778 73.192 101.426 72.888C101.074 72.584 100.638 72.432 100.118 72.432C99.6457 72.432 99.2417 72.584 98.9057 72.888C98.5697 73.184 98.3697 73.588 98.3057 74.1H101.966Z" fill="white"/>
<g opacity="0.3" clip-path="url(#clip0_8979_61227)">
<path fill-rule="evenodd" clip-rule="evenodd" d="M103.8 0.00754547C103.223 0.0688095 102.653 0.114758 102.083 0.22197C96.9895 1.27989 92.0826 3.08657 87.5241 5.58253C82.4033 8.25571 77.6325 11.5452 73.3192 15.377C67.2015 20.6759 62.0246 26.9616 58.0056 33.9705C56.3687 36.9917 54.9982 40.1484 53.9097 43.4051C53.8891 43.457 53.8897 43.5148 53.9112 43.5663C53.9328 43.6177 53.9737 43.6588 54.0252 43.6808C54.0784 43.7016 54.1376 43.7013 54.1906 43.6799C54.2436 43.6585 54.2864 43.6177 54.31 43.5659C55.8811 40.5617 57.624 37.6494 59.5301 34.8435C63.7665 28.2218 68.8522 22.1774 74.6589 16.8627C78.8401 13.0952 83.4106 9.77872 88.294 6.96862C92.7407 4.50527 97.4182 2.4791 102.26 0.918842C102.807 0.73505 103.33 0.51297 103.869 0.321522C103.891 0.317997 103.911 0.310074 103.929 0.298275C103.947 0.286472 103.962 0.271053 103.974 0.253014C103.985 0.23497 103.993 0.214706 103.996 0.193527C104 0.172352 103.998 0.150738 103.993 0.130074C103.989 0.108944 103.981 0.0887909 103.969 0.0709114C103.957 0.0530357 103.942 0.0378304 103.924 0.0262833C103.906 0.0147362 103.885 0.00710297 103.864 0.00387573C103.843 0.000644684 103.821 0.00189972 103.8 0.00754547Z" fill="white"/>
<path fill-rule="evenodd" clip-rule="evenodd" d="M54.3102 43.6043C54.1254 40.8551 54.1485 37.1946 54.11 36.1607L53.956 32.4696C53.8482 31.0912 53.5942 29.9731 52.7935 30.2182C51.8157 30.2182 52.1236 32.0484 52.0235 32.5156L51.9696 36.1837C51.9696 37.386 51.8619 43.3592 52.0158 45.8097C52.0185 46.1935 52.0998 46.5728 52.2546 46.9243C52.4095 47.2758 52.6348 47.5923 52.9166 47.8544C53.1948 47.9804 53.5033 48.025 53.806 47.9829C54.1086 47.9409 54.393 47.814 54.6259 47.617C55.6126 46.6583 56.519 45.6211 57.3359 44.5156C58.5755 43.0376 59.9691 41.6438 61.3164 40.2424C63.3721 38.1288 65.4354 36.0459 67.6528 34.0701C67.7549 33.9929 67.822 33.8786 67.8393 33.7522C67.8566 33.6258 67.8228 33.4978 67.7452 33.3962C67.6676 33.2947 67.5526 33.2279 67.4256 33.2107C67.2985 33.1935 67.1698 33.2271 67.0677 33.3043C65.3816 34.4071 63.7185 35.4945 62.1325 36.7274C59.7772 38.6134 57.557 40.6605 55.4882 42.8538C55.1132 43.1304 54.7196 43.3812 54.3102 43.6043Z" fill="white"/>
</g>
<defs>
<clipPath id="clip0_8979_61227">
<rect width="52" height="48" fill="white" transform="translate(104 48) rotate(-180)"/>
</clipPath>
</defs>
</svg>
