<svg width="176" height="30" viewBox="0 0 176 30" fill="none" xmlns="http://www.w3.org/2000/svg">
<g clip-path="url(#clip0_2009_876)">
<path d="M68 17.85V1.00002H70.12V16.01H76.17V17.85H68Z" fill="url(#paint0_linear_2009_876)"/>
<path d="M83.76 6.27002C85.47 6.27002 86.91 6.86002 88.07 8.03002C89.23 9.20002 89.81 10.59 89.81 12.21C89.81 13.83 89.23 15.2 88.07 16.37C86.91 17.54 85.47 18.13 83.76 18.13C82.05 18.13 80.63 17.54 79.46 16.37C78.29 15.2 77.7 13.81 77.7 12.21C77.7 10.61 78.29 9.20002 79.46 8.03002C80.63 6.86002 82.07 6.27002 83.76 6.27002ZM81.02 9.31002C80.25 10.09 79.86 11.05 79.86 12.2C79.86 13.35 80.25 14.3 81.02 15.07C81.79 15.84 82.71 16.23 83.76 16.23C84.81 16.23 85.72 15.84 86.49 15.07C87.27 14.3 87.65 13.34 87.65 12.2C87.65 11.06 87.26 10.09 86.49 9.31002C85.72 8.53002 84.8 8.14002 83.76 8.14002C82.72 8.14002 81.79 8.53002 81.02 9.31002Z" fill="url(#paint1_linear_2009_876)"/>
<path d="M101.81 16.03C101.08 17.43 99.8501 18.13 98.1501 18.13C96.4501 18.13 95.0201 17.54 93.8501 16.37C92.6801 15.2 92.0901 13.81 92.0901 12.21C92.0901 10.61 92.6801 9.20001 93.8501 8.04001C95.0201 6.87001 96.4601 6.29001 98.1501 6.29001C99.8401 6.29001 101.12 7.00001 101.97 8.41001V7.16001H104.09V15.21C104.09 16.78 103.52 18.13 102.39 19.25C101.2 20.44 99.7601 21.04 98.0601 21.04C96.3601 21.04 94.9301 20.46 93.7601 19.3C93.4901 19.03 93.1601 18.62 92.7501 18.08L94.7801 17.34C95.0501 17.68 95.2401 17.9 95.3501 18C96.1101 18.76 97.0101 19.15 98.0501 19.15C100.26 19.15 101.51 18.12 101.81 16.05V16.03ZM101.95 11.3C101.79 10.54 101.43 9.87001 100.85 9.29001C100.09 8.52001 99.1901 8.14001 98.1501 8.14001C97.1101 8.14001 96.1801 8.53001 95.4101 9.31001C94.6401 10.09 94.2501 11.05 94.2501 12.2C94.2501 13.35 94.6401 14.3 95.4101 15.07C96.1801 15.85 97.1001 16.23 98.1501 16.23C99.2001 16.23 100.11 15.84 100.9 15.05C101.45 14.5 101.8 13.86 101.95 13.11V11.29V11.3Z" fill="url(#paint2_linear_2009_876)"/>
<path d="M109.25 4.10001C109.53 4.38001 109.68 4.69001 109.68 5.03001C109.68 5.37001 109.54 5.71001 109.25 5.98001C108.97 6.26001 108.61 6.40001 108.18 6.40001C107.75 6.40001 107.37 6.26001 107.09 5.98001C106.81 5.70001 106.67 5.39001 106.67 5.03001C106.67 4.67001 106.81 4.38001 107.09 4.10001C107.37 3.82001 107.73 3.68001 108.18 3.68001C108.63 3.68001 108.97 3.82001 109.25 4.10001ZM109.22 7.15001V17.85H107.11V7.15001H109.22Z" fill="url(#paint3_linear_2009_876)"/>
<path d="M121.36 14.43L123.37 15.17C122.97 15.71 122.66 16.1 122.42 16.34C121.23 17.53 119.79 18.13 118.08 18.13C116.37 18.13 114.95 17.54 113.78 16.37C112.61 15.2 112.02 13.8 112.02 12.2C112.02 10.6 112.61 9.20002 113.78 8.03002C114.95 6.86002 116.39 6.27002 118.08 6.27002C119.77 6.27002 121.22 6.85002 122.38 8.00002C122.65 8.27002 122.98 8.67002 123.37 9.21002L121.36 9.96002C121.08 9.61002 120.89 9.38002 120.79 9.27002C120.03 8.52002 119.13 8.15002 118.09 8.15002C117.05 8.15002 116.14 8.54002 115.36 9.31002C114.59 10.09 114.2 11.05 114.2 12.2C114.2 13.35 114.59 14.3 115.36 15.07C116.13 15.85 117.04 16.23 118.09 16.23C119.14 16.23 120.05 15.84 120.84 15.05C120.91 14.98 121.09 14.77 121.37 14.43H121.36Z" fill="url(#paint4_linear_2009_876)"/>
<path d="M135.26 5.22002L138.67 14.01L142.16 1.00002H144.3L139.78 17.85H137.93L134.56 8.98002L131.18 17.85H129.33L124.8 1.00002H126.95L130.45 14.01L133.83 5.22002H135.25H135.26Z" fill="url(#paint5_linear_2009_876)" stroke="url(#paint6_linear_2009_876)" stroke-width="0.64" stroke-miterlimit="10"/>
<path d="M148.62 3.45001C148.9 3.73001 149.05 4.04001 149.05 4.38001C149.05 4.72001 148.91 5.06001 148.62 5.33001C148.34 5.61001 147.98 5.75001 147.55 5.75001C147.12 5.75001 146.74 5.61001 146.46 5.33001C146.18 5.05001 146.04 4.74001 146.04 4.38001C146.04 4.02001 146.18 3.73001 146.46 3.45001C146.74 3.17001 147.1 3.03001 147.55 3.03001C148 3.03001 148.34 3.17001 148.62 3.45001ZM148.59 7.14001V17.84H146.48V7.15001H148.59V7.14001Z" fill="url(#paint7_linear_2009_876)" stroke="url(#paint8_linear_2009_876)" stroke-width="0.64" stroke-miterlimit="10"/>
<path d="M154.06 9.86001V17.84H151.94V7.15001H154.06C154.42 6.76001 155.16 6.56001 156.28 6.56001C157.63 6.56001 158.72 6.97001 159.55 7.80001C160.38 8.63001 160.8 9.64001 160.81 10.83V17.84H158.7V10.92C158.7 10.19 158.45 9.59001 157.96 9.11001C157.47 8.63001 156.91 8.39001 156.27 8.39001C155.63 8.39001 155.1 8.62001 154.62 9.07001C154.35 9.34001 154.16 9.60001 154.05 9.85001L154.06 9.86001Z" fill="url(#paint9_linear_2009_876)" stroke="url(#paint10_linear_2009_876)" stroke-width="0.64" stroke-miterlimit="10"/>
<path d="M175.66 17.85H173.54V15.98C172.7 17.42 171.43 18.13 169.72 18.13C168.01 18.13 166.59 17.54 165.42 16.37C164.25 15.2 163.66 13.81 163.66 12.21C163.66 10.61 164.25 9.20002 165.42 8.03001C166.59 6.86001 168.03 6.27002 169.72 6.27002C171.41 6.27002 172.7 6.98001 173.54 8.40001V1.00002H175.66V17.85ZM173.54 13.05V11.34C173.39 10.57 173.04 9.90002 172.47 9.34002C171.68 8.54002 170.76 8.15001 169.72 8.15001C168.68 8.15001 167.75 8.54002 166.98 9.32002C166.21 10.1 165.82 11.06 165.82 12.21C165.82 13.36 166.21 14.31 166.98 15.08C167.75 15.85 168.67 16.24 169.72 16.24C170.77 16.24 171.68 15.85 172.47 15.06C173.03 14.5 173.39 13.83 173.54 13.06V13.05Z" fill="url(#paint11_linear_2009_876)" stroke="url(#paint12_linear_2009_876)" stroke-width="0.64" stroke-miterlimit="10"/>
<path d="M128.06 26.01C127.69 25.89 127.4 25.72 127.17 25.49C126.94 25.26 126.84 25 126.84 24.68C126.84 24.36 126.96 24.1 127.19 23.87C127.42 23.64 127.71 23.52 128.05 23.52C128.39 23.52 128.68 23.64 128.92 23.88C129.05 24 129.14 24.18 129.22 24.4L128.64 24.62C128.57 24.43 128.5 24.3 128.45 24.25C128.33 24.13 128.2 24.07 128.05 24.07C127.9 24.07 127.77 24.13 127.66 24.24C127.55 24.35 127.49 24.5 127.49 24.68C127.49 24.86 127.55 25.01 127.67 25.13C127.79 25.25 127.96 25.36 128.18 25.46C128.59 25.59 128.93 25.8 129.21 26.07C129.53 26.38 129.68 26.75 129.68 27.18C129.68 27.61 129.52 27.98 129.21 28.29C128.9 28.6 128.51 28.76 128.06 28.76C127.61 28.76 127.22 28.6 126.9 28.28C126.65 28.04 126.5 27.72 126.44 27.33L127.06 27.11C127.1 27.48 127.2 27.76 127.38 27.93C127.57 28.12 127.8 28.21 128.06 28.21C128.32 28.21 128.55 28.11 128.75 27.92C128.95 27.72 129.04 27.48 129.04 27.19C129.04 26.9 128.94 26.66 128.75 26.47C128.56 26.28 128.33 26.13 128.07 26.02L128.06 26.01Z" fill="url(#paint13_linear_2009_876)"/>
<path d="M136.39 24.28C136.91 24.8 137.16 25.41 137.16 26.13C137.16 26.85 136.9 27.47 136.39 27.98C135.87 28.5 135.24 28.76 134.5 28.76C133.76 28.76 133.13 28.5 132.61 27.98C132.09 27.46 131.84 26.85 131.84 26.13C131.84 25.41 132.1 24.8 132.61 24.28C133.13 23.76 133.76 23.5 134.5 23.5C135.24 23.5 135.88 23.76 136.39 24.28ZM134.5 24.07C133.95 24.07 133.48 24.27 133.08 24.67C132.68 25.07 132.48 25.56 132.48 26.13C132.48 26.7 132.68 27.2 133.08 27.6C133.48 28 133.95 28.2 134.5 28.2C135.05 28.2 135.52 28 135.92 27.6C136.32 27.2 136.52 26.71 136.52 26.13C136.52 25.55 136.32 25.07 135.92 24.67C135.52 24.27 135.05 24.07 134.5 24.07Z" fill="url(#paint14_linear_2009_876)"/>
<path d="M139.54 28.7V23.57H140.18V28.14H142.02V28.7H139.53H139.54Z" fill="url(#paint15_linear_2009_876)"/>
<path d="M147.12 23.58H147.76V27.21C147.71 27.61 147.53 27.96 147.24 28.25C146.9 28.59 146.49 28.76 146 28.76C145.51 28.76 145.08 28.59 144.74 28.25C144.4 27.91 144.23 27.5 144.23 27.04V23.59H144.87V27.04C144.87 27.37 144.98 27.64 145.21 27.87C145.43 28.09 145.7 28.21 146 28.21C146.3 28.21 146.56 28.1 146.78 27.87C147 27.64 147.11 27.37 147.11 27.04V23.59L147.12 23.58Z" fill="url(#paint16_linear_2009_876)"/>
<path d="M151.9 24.14V28.71H151.26V24.14H150.03V23.58H153.12V24.14H151.9Z" fill="url(#paint17_linear_2009_876)"/>
<path d="M156.06 23.58V28.71H155.41V23.58H156.06Z" fill="url(#paint18_linear_2009_876)"/>
<path d="M163.03 24.28C163.55 24.8 163.8 25.41 163.8 26.13C163.8 26.85 163.54 27.47 163.03 27.98C162.51 28.5 161.88 28.76 161.14 28.76C160.4 28.76 159.77 28.5 159.25 27.98C158.73 27.46 158.48 26.85 158.48 26.13C158.48 25.41 158.74 24.8 159.25 24.28C159.77 23.76 160.4 23.5 161.14 23.5C161.88 23.5 162.52 23.76 163.03 24.28ZM161.14 24.07C160.59 24.07 160.12 24.27 159.72 24.67C159.32 25.07 159.12 25.56 159.12 26.13C159.12 26.7 159.32 27.2 159.72 27.6C160.12 28 160.59 28.2 161.14 28.2C161.69 28.2 162.16 28 162.56 27.6C162.96 27.2 163.16 26.71 163.16 26.13C163.16 25.55 162.96 25.07 162.56 24.67C162.16 24.27 161.69 24.07 161.14 24.07Z" fill="url(#paint19_linear_2009_876)"/>
<path d="M166.8 23.58L169.72 27.68V23.58H170.37V28.71H169.66L166.81 24.72V28.71H166.17V23.58H166.81H166.8Z" fill="url(#paint20_linear_2009_876)"/>
<path d="M174.33 26.01C173.96 25.89 173.67 25.72 173.44 25.49C173.21 25.26 173.11 25 173.11 24.68C173.11 24.36 173.23 24.1 173.46 23.87C173.69 23.64 173.98 23.52 174.32 23.52C174.66 23.52 174.95 23.64 175.19 23.88C175.32 24 175.41 24.18 175.49 24.4L174.91 24.62C174.84 24.43 174.77 24.3 174.72 24.25C174.6 24.13 174.47 24.07 174.32 24.07C174.17 24.07 174.04 24.13 173.93 24.24C173.82 24.35 173.76 24.5 173.76 24.68C173.76 24.86 173.82 25.01 173.94 25.13C174.06 25.25 174.23 25.36 174.45 25.46C174.86 25.59 175.2 25.8 175.48 26.07C175.8 26.38 175.95 26.75 175.95 27.18C175.95 27.61 175.79 27.98 175.48 28.29C175.17 28.6 174.78 28.76 174.33 28.76C173.88 28.76 173.49 28.6 173.17 28.28C172.92 28.04 172.77 27.72 172.71 27.33L173.33 27.11C173.37 27.48 173.47 27.76 173.65 27.93C173.84 28.12 174.07 28.21 174.33 28.21C174.59 28.21 174.82 28.11 175.02 27.92C175.22 27.72 175.31 27.48 175.31 27.19C175.31 26.9 175.21 26.66 175.02 26.47C174.83 26.28 174.6 26.13 174.34 26.02L174.33 26.01Z" fill="url(#paint21_linear_2009_876)"/>
<path d="M28.54 2.03V13.17L30.04 11.67V1.36H29.21C28.84 1.36 28.54 1.66 28.54 2.03Z" fill="url(#paint22_linear_2009_876)"/>
<path d="M55.3301 1.36V3.71L56.5401 2.5C56.9601 2.08 56.6601 1.36 56.0701 1.36H55.3401H55.3301Z" fill="url(#paint23_linear_2009_876)"/>
<path d="M36.3601 1.36V5.35L34.8601 6.85V1.36H36.3601Z" fill="url(#paint24_linear_2009_876)"/>
<path d="M36.1599 8.97L37.6599 7.47V21.36L37.4999 21.52C37.2399 21.78 36.8199 21.78 36.5599 21.52L36.1699 21.13V8.96L36.1599 8.97Z" fill="url(#paint25_linear_2009_876)"/>
<path d="M51.96 1.36V7.07L53.67 5.36V1.36H51.96Z" fill="url(#paint26_linear_2009_876)"/>
<path d="M48.8 1.36V10.23L50.3 8.73V1.36H48.8Z" fill="url(#paint27_linear_2009_876)"/>
<path d="M45.6399 1.36V13.39L47.1399 11.88V1.36H45.6399Z" fill="url(#paint28_linear_2009_876)"/>
<path d="M39.51 1.36V2.19L38.02 3.69V1.36H39.51Z" fill="url(#paint29_linear_2009_876)"/>
<path d="M39.3201 5.81001L40.8201 4.31001V18.21L39.3201 19.71V5.81001Z" fill="url(#paint30_linear_2009_876)"/>
<path d="M30.0801 15.05L31.3501 13.79V16.32L30.0801 15.05Z" fill="url(#paint31_linear_2009_876)"/>
<path d="M33.2 1.36V8.51L31.7 10.01V1.36H33.2Z" fill="url(#paint32_linear_2009_876)"/>
<path d="M33 12.13L34.51 10.63V19.48L33 17.98V12.13Z" fill="url(#paint33_linear_2009_876)"/>
<path d="M43.98 1.36V15.04L42.48 16.55V2.65L43.78 1.36H43.98Z" fill="url(#paint34_linear_2009_876)"/>
<path d="M19.0701 10.31V21.36L19.2301 21.53C19.4901 21.79 19.9101 21.79 20.1701 21.53L20.5601 21.14V8.82001L19.0601 10.32L19.0701 10.31Z" fill="url(#paint35_linear_2009_876)"/>
<path d="M17.4099 7.40001L15.9099 5.90001V18.2L17.4099 19.71V7.40001Z" fill="url(#paint36_linear_2009_876)"/>
<path d="M12.75 15.04L14.25 16.55V4.24001L12.75 2.74001V15.04Z" fill="url(#paint37_linear_2009_876)"/>
<path d="M0.200104 2.5L1.4101 3.71V1.36H0.680104C0.0701041 1.36 -0.219896 2.07 0.200104 2.5Z" fill="url(#paint38_linear_2009_876)"/>
<path d="M23.73 5.67001L22.22 7.17001V19.48L23.73 17.98V5.67001Z" fill="url(#paint39_linear_2009_876)"/>
<path d="M3.06006 1.36V5.36L4.77006 7.07V1.36H3.06006Z" fill="url(#paint40_linear_2009_876)"/>
<path d="M6.42993 1.36V8.73L7.92993 10.23V1.36H6.42993Z" fill="url(#paint41_linear_2009_876)"/>
<path d="M9.59009 1.36V11.88L11.0901 13.39V1.36H9.59009Z" fill="url(#paint42_linear_2009_876)"/>
<path d="M26.8799 2.51001L25.3799 4.02001V16.32L26.8799 14.82V2.51001Z" fill="url(#paint43_linear_2009_876)"/>
<path d="M25.3799 4.01001L26.8799 2.52001V2.51001" fill="url(#paint44_linear_2009_876)"/>
<path d="M38.02 3.69L39.51 2.19H39.52" fill="url(#paint45_linear_2009_876)"/>
</g>
<defs>
<linearGradient id="paint0_linear_2009_876" x1="68" y1="1.00002" x2="76.7461" y2="-0.394419" gradientUnits="userSpaceOnUse">
<stop offset="0.03" stop-color="#3CC0BE"/>
<stop offset="0.716304" stop-color="#F47A8F"/>
<stop offset="1" stop-color="#C9435B"/>
</linearGradient>
<linearGradient id="paint1_linear_2009_876" x1="77.7" y1="6.27002" x2="89.6466" y2="2.25887" gradientUnits="userSpaceOnUse">
<stop offset="0.03" stop-color="#3CC0BE"/>
<stop offset="0.716304" stop-color="#F47A8F"/>
<stop offset="1" stop-color="#C9435B"/>
</linearGradient>
<linearGradient id="paint2_linear_2009_876" x1="92.0901" y1="6.29001" x2="104.383" y2="3.00144" gradientUnits="userSpaceOnUse">
<stop offset="0.03" stop-color="#3CC0BE"/>
<stop offset="0.716304" stop-color="#F47A8F"/>
<stop offset="1" stop-color="#C9435B"/>
</linearGradient>
<linearGradient id="paint3_linear_2009_876" x1="106.67" y1="3.68001" x2="109.958" y2="3.45034" gradientUnits="userSpaceOnUse">
<stop offset="0.03" stop-color="#3CC0BE"/>
<stop offset="0.716304" stop-color="#F47A8F"/>
<stop offset="1" stop-color="#C9435B"/>
</linearGradient>
<linearGradient id="paint4_linear_2009_876" x1="112.02" y1="6.27002" x2="123.357" y2="2.70259" gradientUnits="userSpaceOnUse">
<stop offset="0.03" stop-color="#3CC0BE"/>
<stop offset="0.716304" stop-color="#F47A8F"/>
<stop offset="1" stop-color="#C9435B"/>
</linearGradient>
<linearGradient id="paint5_linear_2009_876" x1="124.8" y1="1.00002" x2="143.498" y2="-6.11527" gradientUnits="userSpaceOnUse">
<stop offset="0.03" stop-color="#3CC0BE"/>
<stop offset="0.716304" stop-color="#F47A8F"/>
<stop offset="1" stop-color="#C9435B"/>
</linearGradient>
<linearGradient id="paint6_linear_2009_876" x1="124.8" y1="1.00002" x2="143.498" y2="-6.11527" gradientUnits="userSpaceOnUse">
<stop offset="0.03" stop-color="#3CC0BE"/>
<stop offset="0.716304" stop-color="#F47A8F"/>
<stop offset="1" stop-color="#C9435B"/>
</linearGradient>
<linearGradient id="paint7_linear_2009_876" x1="146.04" y1="3.03001" x2="149.33" y2="2.81018" gradientUnits="userSpaceOnUse">
<stop offset="0.03" stop-color="#3CC0BE"/>
<stop offset="0.716304" stop-color="#F47A8F"/>
<stop offset="1" stop-color="#C9435B"/>
</linearGradient>
<linearGradient id="paint8_linear_2009_876" x1="146.04" y1="3.03001" x2="149.33" y2="2.81018" gradientUnits="userSpaceOnUse">
<stop offset="0.03" stop-color="#3CC0BE"/>
<stop offset="0.716304" stop-color="#F47A8F"/>
<stop offset="1" stop-color="#C9435B"/>
</linearGradient>
<linearGradient id="paint9_linear_2009_876" x1="151.94" y1="6.56001" x2="161.067" y2="4.20015" gradientUnits="userSpaceOnUse">
<stop offset="0.03" stop-color="#3CC0BE"/>
<stop offset="0.716304" stop-color="#F47A8F"/>
<stop offset="1" stop-color="#C9435B"/>
</linearGradient>
<linearGradient id="paint10_linear_2009_876" x1="151.94" y1="6.56001" x2="161.067" y2="4.20015" gradientUnits="userSpaceOnUse">
<stop offset="0.03" stop-color="#3CC0BE"/>
<stop offset="0.716304" stop-color="#F47A8F"/>
<stop offset="1" stop-color="#C9435B"/>
</linearGradient>
<linearGradient id="paint11_linear_2009_876" x1="163.66" y1="1.00002" x2="176.169" y2="-1.88141" gradientUnits="userSpaceOnUse">
<stop offset="0.03" stop-color="#3CC0BE"/>
<stop offset="0.716304" stop-color="#F47A8F"/>
<stop offset="1" stop-color="#C9435B"/>
</linearGradient>
<linearGradient id="paint12_linear_2009_876" x1="163.66" y1="1.00002" x2="176.169" y2="-1.88141" gradientUnits="userSpaceOnUse">
<stop offset="0.03" stop-color="#3CC0BE"/>
<stop offset="0.716304" stop-color="#F47A8F"/>
<stop offset="1" stop-color="#C9435B"/>
</linearGradient>
<linearGradient id="paint13_linear_2009_876" x1="126.44" y1="23.52" x2="129.855" y2="22.8256" gradientUnits="userSpaceOnUse">
<stop offset="0.03" stop-color="#3CC0BE"/>
<stop offset="0.716304" stop-color="#F47A8F"/>
<stop offset="1" stop-color="#C9435B"/>
</linearGradient>
<linearGradient id="paint14_linear_2009_876" x1="131.84" y1="23.5" x2="137.098" y2="21.7512" gradientUnits="userSpaceOnUse">
<stop offset="0.03" stop-color="#3CC0BE"/>
<stop offset="0.716304" stop-color="#F47A8F"/>
<stop offset="1" stop-color="#C9435B"/>
</linearGradient>
<linearGradient id="paint15_linear_2009_876" x1="139.53" y1="23.57" x2="142.195" y2="23.1446" gradientUnits="userSpaceOnUse">
<stop offset="0.03" stop-color="#3CC0BE"/>
<stop offset="0.716304" stop-color="#F47A8F"/>
<stop offset="1" stop-color="#C9435B"/>
</linearGradient>
<linearGradient id="paint16_linear_2009_876" x1="144.23" y1="23.58" x2="147.92" y2="22.7532" gradientUnits="userSpaceOnUse">
<stop offset="0.03" stop-color="#3CC0BE"/>
<stop offset="0.716304" stop-color="#F47A8F"/>
<stop offset="1" stop-color="#C9435B"/>
</linearGradient>
<linearGradient id="paint17_linear_2009_876" x1="150.03" y1="23.58" x2="153.294" y2="22.9336" gradientUnits="userSpaceOnUse">
<stop offset="0.03" stop-color="#3CC0BE"/>
<stop offset="0.716304" stop-color="#F47A8F"/>
<stop offset="1" stop-color="#C9435B"/>
</linearGradient>
<linearGradient id="paint18_linear_2009_876" x1="155.41" y1="23.58" x2="156.122" y2="23.5503" gradientUnits="userSpaceOnUse">
<stop offset="0.03" stop-color="#3CC0BE"/>
<stop offset="0.716304" stop-color="#F47A8F"/>
<stop offset="1" stop-color="#C9435B"/>
</linearGradient>
<linearGradient id="paint19_linear_2009_876" x1="158.48" y1="23.5" x2="163.738" y2="21.7512" gradientUnits="userSpaceOnUse">
<stop offset="0.03" stop-color="#3CC0BE"/>
<stop offset="0.716304" stop-color="#F47A8F"/>
<stop offset="1" stop-color="#C9435B"/>
</linearGradient>
<linearGradient id="paint20_linear_2009_876" x1="166.17" y1="23.58" x2="170.469" y2="22.4227" gradientUnits="userSpaceOnUse">
<stop offset="0.03" stop-color="#3CC0BE"/>
<stop offset="0.716304" stop-color="#F47A8F"/>
<stop offset="1" stop-color="#C9435B"/>
</linearGradient>
<linearGradient id="paint21_linear_2009_876" x1="172.71" y1="23.52" x2="176.125" y2="22.8256" gradientUnits="userSpaceOnUse">
<stop offset="0.03" stop-color="#3CC0BE"/>
<stop offset="0.716304" stop-color="#F47A8F"/>
<stop offset="1" stop-color="#C9435B"/>
</linearGradient>
<linearGradient id="paint22_linear_2009_876" x1="-3.87996" y1="9.29" x2="49.94" y2="5.96" gradientUnits="userSpaceOnUse">
<stop offset="0.03" stop-color="#3CC0BE"/>
<stop offset="0.49" stop-color="#F47A8F"/>
<stop offset="1" stop-color="#C9435B"/>
</linearGradient>
<linearGradient id="paint23_linear_2009_876" x1="61.7101" y1="10.88" x2="49.0801" y2="-7.16999" gradientUnits="userSpaceOnUse">
<stop offset="0.03" stop-color="#B0DDDF"/>
<stop offset="0.2" stop-color="#93BBBD"/>
<stop offset="0.46" stop-color="#6D8D8F"/>
<stop offset="0.68" stop-color="#526B6E"/>
<stop offset="0.87" stop-color="#41575A"/>
<stop offset="1" stop-color="#3B5053"/>
</linearGradient>
<linearGradient id="paint24_linear_2009_876" x1="-4.04989" y1="6.51" x2="49.7701" y2="3.18" gradientUnits="userSpaceOnUse">
<stop offset="0.03" stop-color="#3CC0BE"/>
<stop offset="0.49" stop-color="#F47A8F"/>
<stop offset="1" stop-color="#C9435B"/>
</linearGradient>
<linearGradient id="paint25_linear_2009_876" x1="43.4399" y1="23.65" x2="30.8199" y2="5.59" gradientUnits="userSpaceOnUse">
<stop offset="0.03" stop-color="#B0DDDF"/>
<stop offset="0.2" stop-color="#93BBBD"/>
<stop offset="0.46" stop-color="#6D8D8F"/>
<stop offset="0.68" stop-color="#526B6E"/>
<stop offset="0.87" stop-color="#41575A"/>
<stop offset="1" stop-color="#3B5053"/>
</linearGradient>
<linearGradient id="paint26_linear_2009_876" x1="58.86" y1="12.87" x2="46.24" y2="-5.18999" gradientUnits="userSpaceOnUse">
<stop offset="0.03" stop-color="#B0DDDF"/>
<stop offset="0.2" stop-color="#93BBBD"/>
<stop offset="0.46" stop-color="#6D8D8F"/>
<stop offset="0.68" stop-color="#526B6E"/>
<stop offset="0.87" stop-color="#41575A"/>
<stop offset="1" stop-color="#3B5053"/>
</linearGradient>
<linearGradient id="paint27_linear_2009_876" x1="55.93" y1="14.92" x2="43.31" y2="-3.14" gradientUnits="userSpaceOnUse">
<stop offset="0.03" stop-color="#B0DDDF"/>
<stop offset="0.2" stop-color="#93BBBD"/>
<stop offset="0.46" stop-color="#6D8D8F"/>
<stop offset="0.68" stop-color="#526B6E"/>
<stop offset="0.87" stop-color="#41575A"/>
<stop offset="1" stop-color="#3B5053"/>
</linearGradient>
<linearGradient id="paint28_linear_2009_876" x1="53.0699" y1="16.92" x2="40.4399" y2="-1.13" gradientUnits="userSpaceOnUse">
<stop offset="0.03" stop-color="#B0DDDF"/>
<stop offset="0.2" stop-color="#93BBBD"/>
<stop offset="0.46" stop-color="#6D8D8F"/>
<stop offset="0.68" stop-color="#526B6E"/>
<stop offset="0.87" stop-color="#41575A"/>
<stop offset="1" stop-color="#3B5053"/>
</linearGradient>
<linearGradient id="paint29_linear_2009_876" x1="39.07" y1="2.96" x2="37.97" y2="1.39" gradientUnits="userSpaceOnUse">
<stop offset="0.49" stop-color="#F47A8F"/>
<stop offset="1" stop-color="#C9435B"/>
</linearGradient>
<linearGradient id="paint30_linear_2009_876" x1="46.6401" y1="21.41" x2="34.0201" y2="3.36001" gradientUnits="userSpaceOnUse">
<stop offset="0.03" stop-color="#B0DDDF"/>
<stop offset="0.2" stop-color="#93BBBD"/>
<stop offset="0.46" stop-color="#6D8D8F"/>
<stop offset="0.68" stop-color="#526B6E"/>
<stop offset="0.87" stop-color="#41575A"/>
<stop offset="1" stop-color="#3B5053"/>
</linearGradient>
<linearGradient id="paint31_linear_2009_876" x1="39.2301" y1="26.6" x2="26.6001" y2="8.54" gradientUnits="userSpaceOnUse">
<stop offset="0.03" stop-color="#B0DDDF"/>
<stop offset="0.2" stop-color="#93BBBD"/>
<stop offset="0.46" stop-color="#6D8D8F"/>
<stop offset="0.68" stop-color="#526B6E"/>
<stop offset="0.87" stop-color="#41575A"/>
<stop offset="1" stop-color="#3B5053"/>
</linearGradient>
<linearGradient id="paint32_linear_2009_876" x1="-3.96005" y1="7.89" x2="49.85" y2="4.56" gradientUnits="userSpaceOnUse">
<stop offset="0.03" stop-color="#3CC0BE"/>
<stop offset="0.49" stop-color="#F47A8F"/>
<stop offset="1" stop-color="#C9435B"/>
</linearGradient>
<linearGradient id="paint33_linear_2009_876" x1="41.32" y1="25.13" x2="28.7" y2="7.07002" gradientUnits="userSpaceOnUse">
<stop offset="0.03" stop-color="#B0DDDF"/>
<stop offset="0.2" stop-color="#93BBBD"/>
<stop offset="0.46" stop-color="#6D8D8F"/>
<stop offset="0.68" stop-color="#526B6E"/>
<stop offset="0.87" stop-color="#41575A"/>
<stop offset="1" stop-color="#3B5053"/>
</linearGradient>
<linearGradient id="paint34_linear_2009_876" x1="50.2" y1="18.92" x2="37.58" y2="0.870001" gradientUnits="userSpaceOnUse">
<stop offset="0.03" stop-color="#B0DDDF"/>
<stop offset="0.2" stop-color="#93BBBD"/>
<stop offset="0.46" stop-color="#6D8D8F"/>
<stop offset="0.68" stop-color="#526B6E"/>
<stop offset="0.87" stop-color="#41575A"/>
<stop offset="1" stop-color="#3B5053"/>
</linearGradient>
<linearGradient id="paint35_linear_2009_876" x1="-3.41994" y1="16.73" x2="50.4001" y2="13.4" gradientUnits="userSpaceOnUse">
<stop offset="0.03" stop-color="#3CC0BE"/>
<stop offset="0.49" stop-color="#F47A8F"/>
<stop offset="1" stop-color="#C9435B"/>
</linearGradient>
<linearGradient id="paint36_linear_2009_876" x1="-3.58009" y1="14.05" x2="50.2299" y2="10.72" gradientUnits="userSpaceOnUse">
<stop offset="0.03" stop-color="#3CC0BE"/>
<stop offset="0.49" stop-color="#F47A8F"/>
<stop offset="1" stop-color="#C9435B"/>
</linearGradient>
<linearGradient id="paint37_linear_2009_876" x1="-3.79" y1="10.71" x2="50.03" y2="7.38" gradientUnits="userSpaceOnUse">
<stop offset="0.03" stop-color="#3CC0BE"/>
<stop offset="0.49" stop-color="#F47A8F"/>
<stop offset="1" stop-color="#C9435B"/>
</linearGradient>
<linearGradient id="paint38_linear_2009_876" x1="-4.2699" y1="2.86" x2="49.5401" y2="-0.469999" gradientUnits="userSpaceOnUse">
<stop offset="0.03" stop-color="#3CC0BE"/>
<stop offset="0.49" stop-color="#F47A8F"/>
<stop offset="1" stop-color="#C9435B"/>
</linearGradient>
<linearGradient id="paint39_linear_2009_876" x1="-3.57003" y1="14.22" x2="50.24" y2="10.89" gradientUnits="userSpaceOnUse">
<stop offset="0.03" stop-color="#3CC0BE"/>
<stop offset="0.49" stop-color="#F47A8F"/>
<stop offset="1" stop-color="#C9435B"/>
</linearGradient>
<linearGradient id="paint40_linear_2009_876" x1="-4.15994" y1="4.71" x2="49.6601" y2="1.38" gradientUnits="userSpaceOnUse">
<stop offset="0.03" stop-color="#3CC0BE"/>
<stop offset="0.49" stop-color="#F47A8F"/>
<stop offset="1" stop-color="#C9435B"/>
</linearGradient>
<linearGradient id="paint41_linear_2009_876" x1="-4.05007" y1="6.49" x2="49.7699" y2="3.16" gradientUnits="userSpaceOnUse">
<stop offset="0.03" stop-color="#3CC0BE"/>
<stop offset="0.49" stop-color="#F47A8F"/>
<stop offset="1" stop-color="#C9435B"/>
</linearGradient>
<linearGradient id="paint42_linear_2009_876" x1="-3.93991" y1="8.26" x2="49.8701" y2="4.93" gradientUnits="userSpaceOnUse">
<stop offset="0.03" stop-color="#3CC0BE"/>
<stop offset="0.49" stop-color="#F47A8F"/>
<stop offset="1" stop-color="#C9435B"/>
</linearGradient>
<linearGradient id="paint43_linear_2009_876" x1="-3.75012" y1="11.27" x2="50.0599" y2="7.94001" gradientUnits="userSpaceOnUse">
<stop offset="0.03" stop-color="#3CC0BE"/>
<stop offset="0.49" stop-color="#F47A8F"/>
<stop offset="1" stop-color="#C9435B"/>
</linearGradient>
<linearGradient id="paint44_linear_2009_876" x1="25.3799" y1="2.51001" x2="26.8658" y2="2.0214" gradientUnits="userSpaceOnUse">
<stop offset="0.03" stop-color="#3CC0BE"/>
<stop offset="0.716304" stop-color="#F47A8F"/>
<stop offset="1" stop-color="#C9435B"/>
</linearGradient>
<linearGradient id="paint45_linear_2009_876" x1="38.02" y1="2.19" x2="39.5059" y2="1.7014" gradientUnits="userSpaceOnUse">
<stop offset="0.03" stop-color="#3CC0BE"/>
<stop offset="0.716304" stop-color="#F47A8F"/>
<stop offset="1" stop-color="#C9435B"/>
</linearGradient>
<clipPath id="clip0_2009_876">
<rect width="175.73" height="28.08" fill="white" transform="translate(0 0.960007)"/>
</clipPath>
</defs>
</svg>
