<svg width="212" height="56" viewBox="0 0 212 56" fill="none" xmlns="http://www.w3.org/2000/svg">
<path d="M52.5816 43.1731C52.2708 43.414 51.929 43.6471 51.5716 43.8724C47.6404 46.3041 40.3762 47.8191 32.8402 44.0744C32.0089 43.6626 30.9134 42.9711 29.6471 42.1787C26.1665 39.9878 21 36.7481 15.0566 35.6448V0.108765H9.6182V35.3108C6.50277 35.5205 3.26304 36.4761 0 38.566L2.63374 42.6837C11.8557 36.7791 20.9845 42.5205 27.0366 46.3196C28.4118 47.1898 29.6082 47.9356 30.657 48.4562C34.6892 50.4606 38.636 51.2608 42.2486 51.2608C47.0033 51.2608 51.1676 49.8779 54.1354 48.0366C54.7026 47.687 55.2309 47.3141 55.7203 46.9334C54.4306 45.8613 53.3818 44.6027 52.566 43.1887L52.5816 43.1731Z" fill="url(#paint0_linear_0_1254)"/>
<path d="M149.036 21.9012V35.4895H146.612V0.0155334H157.729C164.597 0.0155334 169.438 3.97003 169.438 10.9389C169.438 17.9079 164.597 21.909 157.729 21.909H149.036V21.9012ZM149.036 2.08989V19.8812H157.683C163.362 19.8812 167.068 16.6726 167.068 10.9856C167.068 5.29855 163.362 2.08989 157.683 2.08989H149.036Z" fill="white"/>
<path d="M176.554 35.4894H174.278V9.59488H176.453V15.818C178.131 11.7625 181.938 9.09766 186.235 9.09766V11.5216C180.851 11.475 176.546 15.5227 176.546 21.1554V35.4817L176.554 35.4894Z" fill="white"/>
<path d="M187.726 22.4994C187.726 14.6915 192.714 9.15982 199.784 9.15982C206.854 9.15982 211.842 14.6915 211.842 22.4994C211.842 30.3074 206.854 35.9867 199.784 35.9867C192.714 35.9867 187.726 30.455 187.726 22.4994ZM209.519 22.4994C209.519 15.6315 205.416 11.0866 199.784 11.0866C194.151 11.0866 190.049 15.6315 190.049 22.4994C190.049 29.3674 194.151 34.0599 199.784 34.0599C205.416 34.0599 209.519 29.515 209.519 22.4994Z" fill="white"/>
<path d="M103.035 50.4839C103.035 47.384 105.257 45.0067 108.193 45.0067C110.703 45.0067 112.777 46.6926 113.189 49.2098H112.031C111.697 47.3296 110.136 45.9933 108.193 45.9933C105.855 45.9933 104.169 47.9045 104.169 50.4917C104.169 53.0788 105.855 55.0133 108.193 55.0133C110.143 55.0133 111.705 53.6615 112.031 51.7813H113.189C112.777 54.2908 110.703 56 108.193 56C105.257 56 103.035 53.6071 103.035 50.4917V50.4839Z" fill="#808080"/>
<path d="M115.831 50.4839C115.831 47.4151 118.091 45.0067 121.145 45.0067C124.198 45.0067 126.474 47.4151 126.474 50.4839C126.474 53.5527 124.198 55.9922 121.145 55.9922C118.091 55.9922 115.831 53.5527 115.831 50.4839ZM125.332 50.4839C125.332 47.9589 123.646 45.9856 121.145 45.9856C118.643 45.9856 116.957 47.9511 116.957 50.4839C116.957 53.0166 118.659 55.0055 121.145 55.0055C123.631 55.0055 125.332 53.0089 125.332 50.4839Z" fill="#808080"/>
<path d="M130.739 46.778V55.7669H129.714V45.2164H130.934L137.032 54.0888V45.2164H138.073V55.7669H136.9L130.747 46.778H130.739Z" fill="#808080"/>
<path d="M145.486 55.9145C143.03 55.9145 141.593 54.5472 141.492 52.5505H142.611C142.712 54.0499 143.652 55.0211 145.478 55.0211C146.977 55.0211 148.15 54.2597 148.15 52.9933C148.15 51.9056 147.537 51.4084 146.037 51.0977L144.701 50.8335C143.302 50.5538 141.834 49.909 141.834 48.0754C141.834 46.3895 143.318 45.0766 145.416 45.0766C147.513 45.0766 149.059 46.3662 149.176 48.3785H148.042C147.972 46.98 146.938 45.97 145.423 45.97C143.807 45.97 142.937 46.9567 142.937 48.0133C142.937 49.2641 143.994 49.6448 145.167 49.8779L146.503 50.1576C148.282 50.5227 149.292 51.2608 149.292 52.8457C149.292 54.5238 147.925 55.9145 145.47 55.9145H145.486Z" fill="#808080"/>
<path d="M160.519 52.1542C160.519 54.5161 158.988 55.9845 156.673 55.9845C154.358 55.9845 152.812 54.5161 152.812 52.1542V45.2242H153.915V52.2164C153.915 53.9334 155.049 55.0055 156.673 55.0055C158.297 55.0055 159.423 53.9334 159.423 52.2164V45.2242H160.526V52.1542H160.519Z" fill="#808080"/>
<path d="M164.333 55.7669V45.2164H165.436V54.7802H170.354V55.7669H164.333Z" fill="#808080"/>
<path d="M175 55.7669V46.2031H171.458V45.2164H179.623V46.2031H176.08V55.7669H174.992H175Z" fill="#808080"/>
<path d="M182.583 55.7669V45.2164H183.686V55.7669H182.583Z" fill="#808080"/>
<path d="M188.557 46.778V55.7669H187.532V45.2164H188.751L194.85 54.0888V45.2164H195.891V55.7669H194.718L188.565 46.778H188.557Z" fill="#808080"/>
<path d="M199.139 50.4917C199.139 47.3762 201.346 44.9989 204.399 44.9989C207.149 44.9989 208.936 46.7159 209.542 48.8368H208.291C207.833 47.2364 206.497 45.9856 204.368 45.9856C201.944 45.9856 200.266 47.8501 200.266 50.5072C200.266 53.1642 201.952 55.0288 204.5 55.0288C206.792 55.0288 208.245 53.6071 208.524 51.3851H204.383V50.4917H209.674C209.643 53.8246 207.584 55.9845 204.477 55.9845C201.369 55.9845 199.147 53.6615 199.147 50.4917H199.139Z" fill="#808080"/>
<path d="M44.8743 24.7603V9.3696H49.8543V35.5128H45.2162V31.4184C44.5558 32.7314 43.507 33.8269 42.0619 34.697C40.6168 35.5672 39.0008 36.0022 37.2295 36.0022C35.4581 36.0022 33.9354 35.6604 32.568 34.9689C31.2006 34.2775 30.1518 33.2053 29.4137 31.737C28.6757 30.2764 28.3027 28.4273 28.3027 26.1898V9.3696H33.2828V25.2031C33.2828 27.4717 33.7955 29.111 34.8133 30.1132C35.831 31.1154 37.1673 31.6204 38.8066 31.6204C39.9254 31.6204 40.9431 31.333 41.8677 30.7581C42.7844 30.1831 43.5225 29.3752 44.0663 28.3419C44.6102 27.3086 44.8821 26.1121 44.8821 24.7681L44.8743 24.7603Z" fill="url(#paint1_linear_0_1254)"/>
<path d="M62.4327 35.5128H57.4526V9.36958H62.0908V13.7125C62.9765 12.1976 64.1108 11.0166 65.4937 10.162C66.8766 9.30743 68.4693 8.88013 70.2795 8.88013C72.1829 8.88013 73.8378 9.34627 75.2362 10.2863C76.6347 11.2264 77.6291 12.5627 78.2196 14.3108C79.1363 12.6326 80.3405 11.3119 81.8244 10.3407C83.3083 9.36958 85.0486 8.88789 87.0531 8.88789C89.749 8.88789 91.8933 9.73473 93.4937 11.4284C95.0864 13.1221 95.8866 15.515 95.8866 18.6071V35.5283H90.9066V20.1842C90.9066 17.9778 90.4327 16.2764 89.4771 15.0799C88.5215 13.8835 87.1385 13.2775 85.3361 13.2775C84.2173 13.2775 83.1918 13.5805 82.2517 14.1865C81.3117 14.7924 80.5658 15.6393 80.0065 16.727C79.4471 17.8146 79.1674 19.081 79.1674 20.5261V35.5205H74.1874V20.1765C74.1874 17.97 73.7212 16.2686 72.7812 15.0721C71.8411 13.8757 70.4504 13.2697 68.6091 13.2697C67.4593 13.2697 66.4105 13.5727 65.4782 14.1787C64.5381 14.7847 63.8 15.6315 63.2562 16.7192C62.7123 17.8069 62.4404 19.0732 62.4404 20.5183V35.5128H62.4327Z" fill="url(#paint2_linear_0_1254)"/>
<path d="M109.296 3.30189C109.296 4.22642 108.962 5.00333 108.286 5.64817C107.61 6.29301 106.748 6.61155 105.699 6.61155C104.65 6.61155 103.733 6.29301 103.057 5.64817C102.381 5.00333 102.047 4.22642 102.047 3.30189C102.047 2.31521 102.381 1.51498 103.057 0.908989C103.733 0.302995 104.611 0 105.699 0C106.787 0 107.618 0.302995 108.286 0.908989C108.962 1.51498 109.296 2.31521 109.296 3.30189ZM108.208 35.5128H103.228V9.36959H108.208V35.5128Z" fill="url(#paint3_linear_0_1254)"/>
<path d="M136.527 27.7203C136.527 30.2841 135.571 32.3041 133.668 33.788C131.756 35.2642 129.06 36.01 125.58 36.01C122.099 36.01 119.458 35.202 117.461 33.5938C115.472 31.9856 114.346 29.7792 114.082 26.9823H118.867C118.929 28.6293 119.582 29.919 120.817 30.8513C122.053 31.7914 123.669 32.2575 125.673 32.2575C127.413 32.2575 128.82 31.9467 129.892 31.3174C130.964 30.6959 131.492 29.7714 131.492 28.5516C131.492 27.4639 131.135 26.6482 130.428 26.0888C129.721 25.5294 128.548 25.1021 126.901 24.8069L122.659 24.0144C120.258 23.5561 118.401 22.7092 117.08 21.4739C115.767 20.2386 115.107 18.6382 115.107 16.6648C115.107 15.1188 115.527 13.7592 116.366 12.5938C117.205 11.4284 118.378 10.5117 119.893 9.85906C121.408 9.19868 123.164 8.87238 125.168 8.87238C127.274 8.87238 129.115 9.22976 130.692 9.93676C132.269 10.6437 133.535 11.646 134.491 12.9434C135.447 14.2409 135.991 15.7947 136.123 17.6049H131.337C131.174 16.0588 130.544 14.8391 129.464 13.9534C128.377 13.0677 126.963 12.6249 125.222 12.6249C123.645 12.6249 122.371 12.9434 121.4 13.5883C120.429 14.2331 119.947 15.111 119.947 16.2298C119.947 17.2864 120.297 18.0788 121.012 18.6227C121.719 19.1665 122.861 19.6016 124.438 19.9279L128.874 20.7669C131.469 21.2253 133.396 22.0333 134.646 23.1832C135.897 24.333 136.519 25.848 136.519 27.7203H136.527Z" fill="url(#paint4_linear_0_1254)"/>
<defs>
<linearGradient id="paint0_linear_0_1254" x1="-1.33629" y1="25.677" x2="159.532" y2="25.677" gradientUnits="userSpaceOnUse">
<stop stop-color="#9C2CF1"/>
<stop offset="0.53" stop-color="#E761B5"/>
<stop offset="1" stop-color="#FCA376"/>
</linearGradient>
<linearGradient id="paint1_linear_0_1254" x1="3.457" y1="22.5694" x2="161.559" y2="23.0433" gradientUnits="userSpaceOnUse">
<stop stop-color="#9C2CF1"/>
<stop offset="0.53" stop-color="#E761B5"/>
<stop offset="1" stop-color="#FCA376"/>
</linearGradient>
<linearGradient id="paint2_linear_0_1254" x1="3.45707" y1="21.9867" x2="161.559" y2="22.4684" gradientUnits="userSpaceOnUse">
<stop stop-color="#9C2CF1"/>
<stop offset="0.53" stop-color="#E761B5"/>
<stop offset="1" stop-color="#FCA376"/>
</linearGradient>
<linearGradient id="paint3_linear_0_1254" x1="3.47243" y1="17.4495" x2="161.575" y2="17.9312" gradientUnits="userSpaceOnUse">
<stop stop-color="#9C2CF1"/>
<stop offset="0.53" stop-color="#E761B5"/>
<stop offset="1" stop-color="#FCA376"/>
</linearGradient>
<linearGradient id="paint4_linear_0_1254" x1="3.45669" y1="22.0799" x2="161.559" y2="22.5538" gradientUnits="userSpaceOnUse">
<stop stop-color="#9C2CF1"/>
<stop offset="0.53" stop-color="#E761B5"/>
<stop offset="1" stop-color="#FCA376"/>
</linearGradient>
</defs>
</svg>
