<svg width="76" height="42" viewBox="0 0 76 42" fill="none" xmlns="http://www.w3.org/2000/svg">
<g clip-path="url(#clip0_242_438)">
<path d="M41.6031 18.0343H56.1985L38.2318 0L20.2651 18.0343H27.0376L39.2772 7.88047L31.213 18.0343H39.5669L45.5352 13.0836L41.6031 18.0343Z" fill="white"/>
<path d="M3.16754 23.7125V24.7431C3.52532 24.3382 3.96536 24.0143 4.45832 23.7929C4.94614 23.5803 5.47258 23.4705 6.00477 23.4704C6.54138 23.4657 7.06904 23.6079 7.5306 23.8815C7.99676 24.1832 8.37231 24.6056 8.61724 25.1037C8.95352 24.5957 9.40767 24.1764 9.941 23.8815C10.474 23.6181 11.0599 23.4789 11.6545 23.4745C12.2497 23.4648 12.8363 23.6172 13.3514 23.9155C13.8072 24.1921 14.1685 24.6003 14.3876 25.0862C14.6113 25.5788 14.7144 26.3548 14.7144 27.4276V32.7204H12.4463V28.1407C12.4463 27.1226 12.3267 26.4434 12.073 26.0704C11.8184 25.7138 11.4442 25.5273 10.9184 25.5273C10.5476 25.5292 10.1869 25.6478 9.88739 25.8663C9.56874 26.0912 9.33061 26.4123 9.20798 26.7825C9.0554 27.1566 8.98736 27.7842 8.98736 28.6488V32.7204H6.68211V28.3602C6.68211 27.5461 6.6316 26.969 6.49551 26.6135C6.4262 26.2991 6.24918 26.0188 5.99504 25.821C5.7409 25.6232 5.42562 25.5204 5.1037 25.5304C4.73664 25.5316 4.37964 25.6505 4.08511 25.8694C3.76952 26.1084 3.5285 26.4323 3.39023 26.8031C3.25414 27.2102 3.16857 27.8336 3.16857 28.7199V32.7235H0.899414V23.7125H3.16754Z" fill="white"/>
<path d="M18.5026 28.8693C18.5789 29.4691 18.884 30.0162 19.3542 30.3966C19.813 30.7696 20.3903 30.9562 21.1068 30.9562C21.5085 30.962 21.9072 30.887 22.2792 30.7354C22.6512 30.5838 22.9888 30.3589 23.2719 30.074L25.173 30.9737C24.7505 31.6126 24.1655 32.1277 23.478 32.4659C22.8162 32.7884 22.0182 32.941 21.1192 32.9574C19.7099 32.9574 18.5552 32.5164 17.6562 31.6178C16.7747 30.7181 16.3324 29.5989 16.3159 28.2582C16.3159 26.8845 16.7572 25.7478 17.6562 24.8492C18.5387 23.9331 19.6418 23.4745 20.9831 23.4745C22.4093 23.4745 23.5633 23.9327 24.4451 24.8492C25.3441 25.7478 25.7854 26.935 25.7854 28.4458V28.8693H18.5026ZM22.6265 25.8664C22.1826 25.5466 21.6466 25.3802 21.0996 25.3923C20.5024 25.3786 19.9175 25.5635 19.4367 25.9179C19.1274 26.1384 18.8593 26.529 18.6047 27.0886H23.51C23.3585 26.5949 23.0478 26.1652 22.6265 25.8664Z" fill="white"/>
<path d="M29.6837 23.7125V24.8461C29.9043 24.3875 30.1754 24.0485 30.5321 23.8279C30.8643 23.595 31.2604 23.4704 31.6662 23.4714C31.9864 23.4736 32.301 23.5554 32.5817 23.7094L31.8868 25.6437C31.6804 25.5391 31.4556 25.4754 31.225 25.4562C30.8858 25.4562 30.5971 25.6623 30.3424 26.1013C30.1043 26.5259 29.9857 27.374 29.9857 28.6292V32.7173H27.7485V23.7125H29.6837Z" fill="white"/>
<path d="M36.3515 20.421C36.4885 20.5596 36.5966 20.724 36.6697 20.9046C36.7428 21.0851 36.7794 21.2784 36.7773 21.4732C36.7782 21.6644 36.7413 21.8539 36.6685 22.0308C36.5958 22.2077 36.4888 22.3684 36.3536 22.5037C36.2263 22.6413 36.0713 22.7503 35.8987 22.8235C35.7261 22.8967 35.54 22.9324 35.3525 22.9283C35.1583 22.9334 34.9652 22.8967 34.7864 22.8206C34.6076 22.7445 34.4473 22.6308 34.3164 22.4872C34.177 22.3513 34.0672 22.1881 33.9939 22.0077C33.9207 21.8273 33.8855 21.6338 33.8906 21.4392C33.8879 21.2495 33.924 21.0613 33.9969 20.8862C34.0698 20.7111 34.1778 20.5528 34.3144 20.421C34.4441 20.2819 34.6021 20.1721 34.7778 20.0991C34.9535 20.026 35.1428 19.9914 35.333 19.9975C35.5227 19.9945 35.7111 20.0306 35.8863 20.1035C36.0615 20.1763 36.2199 20.2844 36.3515 20.421ZM36.468 23.7125V32.7204H34.1999V23.7125H36.468Z" fill="white"/>
<path d="M48.0531 20.2345V32.7204H45.7963V31.7703C45.403 32.1473 44.9502 32.4569 44.456 32.6864C43.996 32.8659 43.5065 32.9578 43.0127 32.9574C41.859 32.9574 40.858 32.4999 39.9919 31.6002C39.1435 30.7016 38.7197 29.5824 38.7197 28.2242C38.7197 26.834 39.1321 25.6973 39.9569 24.8152C40.3298 24.3904 40.7898 24.0509 41.3058 23.8197C41.8217 23.5886 42.3813 23.4712 42.9467 23.4755C43.4715 23.4729 43.9912 23.5781 44.4736 23.7847C44.9698 24.0019 45.4193 24.313 45.7973 24.7008V20.2386L48.0531 20.2345ZM41.6724 26.3074C41.1971 26.8 40.9765 27.4276 40.9765 28.2077C40.9765 28.9878 41.1971 29.6165 41.6724 30.1245C41.897 30.3645 42.1684 30.556 42.4698 30.6874C42.7712 30.8187 43.0963 30.887 43.4251 30.8881C43.7577 30.895 44.088 30.8321 44.3949 30.7036C44.7017 30.5751 44.9782 30.3838 45.2066 30.142C45.6643 29.6494 45.9025 29.0084 45.9025 28.1912C45.9025 27.4111 45.6819 26.7825 45.2066 26.2909C44.7313 25.8159 44.154 25.5788 43.4251 25.5613C43.0969 25.5557 42.7712 25.6192 42.4692 25.7478C42.1673 25.8763 41.8958 26.067 41.6724 26.3074Z" fill="white"/>
<path d="M52.9965 20.421C53.1335 20.5596 53.2415 20.7239 53.3144 20.9045C53.3873 21.0851 53.4237 21.2784 53.4213 21.4732C53.422 21.6645 53.3848 21.854 53.3119 22.0309C53.239 22.2077 53.1318 22.3684 52.9965 22.5037C52.8694 22.6415 52.7143 22.7506 52.5417 22.8238C52.3691 22.897 52.1829 22.9326 51.9954 22.9283C51.802 22.9329 51.6099 22.8959 51.432 22.8198C51.2541 22.7437 51.0947 22.6303 50.9645 22.4872C50.8247 22.3508 50.7149 22.1868 50.6419 22.0057C50.569 21.8245 50.5345 21.6302 50.5408 21.435C50.5378 21.2454 50.5739 21.0571 50.6468 20.882C50.7197 20.7068 50.8278 20.5485 50.9645 20.4169C51.0941 20.2776 51.2521 20.1678 51.4279 20.0947C51.6036 20.0217 51.7929 19.9871 51.9831 19.9933C52.1723 19.9914 52.3599 20.0284 52.5342 20.102C52.7085 20.1756 52.8659 20.2841 52.9965 20.421ZM53.1151 23.7125V32.7204H50.8418V23.7125H53.1151Z" fill="white"/>
<path d="M64.6991 23.7125V32.7204H62.4423V31.7702C62.0491 32.1473 61.5962 32.4569 61.1021 32.6864C60.6421 32.8659 60.1525 32.9578 59.6587 32.9574C58.5051 32.9574 57.503 32.4999 56.638 31.6002C55.7895 30.7016 55.3647 29.5824 55.3647 28.2242C55.3647 26.834 55.7771 25.6973 56.6019 24.8152C56.9747 24.3902 57.4347 24.0506 57.9506 23.8194C58.4666 23.5882 59.0263 23.4709 59.5917 23.4755C60.1165 23.4727 60.6363 23.5779 61.1186 23.7847C61.6151 24.0019 62.065 24.3129 62.4434 24.7008V23.7166L64.6991 23.7125ZM58.3185 26.3074C57.8422 26.8 57.6226 27.4276 57.6226 28.2077C57.6226 28.9878 57.8422 29.6164 58.3185 30.1245C58.5423 30.3642 58.8127 30.5557 59.1132 30.6872C59.4137 30.8187 59.7379 30.8874 60.066 30.8891C60.3986 30.8961 60.7289 30.8332 61.0358 30.7047C61.3426 30.5762 61.6191 30.3849 61.8475 30.143C62.3063 29.6504 62.5444 29.0095 62.5444 28.1922C62.5444 27.4121 62.3238 26.7835 61.8475 26.2919C61.3732 25.8169 60.7959 25.5798 60.066 25.5623C59.7387 25.557 59.414 25.6207 59.1129 25.749C58.8118 25.8774 58.5412 26.0676 58.3185 26.3074Z" fill="white"/>
<path d="M69.851 23.7125V24.6287C70.2691 24.2632 70.7379 23.9601 71.2428 23.729C71.6547 23.5698 72.0911 23.4837 72.5326 23.4745C72.9555 23.4652 73.3759 23.5434 73.7672 23.704C74.1586 23.8647 74.5125 24.1044 74.8069 24.4081C75.3327 24.9512 75.5873 25.7138 75.6049 26.766V32.7204H73.3646V28.7673C73.3646 27.6983 73.3137 26.9858 73.212 26.6299C73.147 26.3056 72.966 26.0162 72.7027 25.8158C72.4449 25.6338 72.1357 25.5389 71.8202 25.5448C71.6015 25.5379 71.3837 25.5748 71.1795 25.6534C70.9754 25.7319 70.789 25.8506 70.6315 26.0023C70.3098 26.3115 70.0892 26.7144 69.9531 27.2751C69.8844 27.5457 69.85 28.1562 69.85 29.1063V32.7204H67.5942V23.7125H69.851Z" fill="white"/>
<path d="M75.5262 35.1721H0.895508V35.4204H75.5262V35.1721Z" fill="white"/>
<path d="M2.21075 36.7632H2.79118L4.07783 40.1444H3.40152L3.08707 39.3014H1.90558L1.59629 40.1444H0.918945L2.21075 36.7632ZM2.96748 38.8397L2.50045 37.5114L2.01486 38.8345L2.96748 38.8397Z" fill="white"/>
<path d="M5.38867 38.4244C5.38919 38.2154 5.4269 38.0081 5.50002 37.8123C5.57371 37.6132 5.68462 37.4299 5.82683 37.2723C5.97389 37.1101 6.15197 36.979 6.35056 36.8868C6.57139 36.7848 6.81249 36.734 7.05575 36.7384C7.33866 36.7317 7.61796 36.803 7.86299 36.9445C8.07958 37.0704 8.25559 37.2557 8.37023 37.4784L7.86609 37.8257C7.8256 37.7379 7.77091 37.6575 7.70422 37.5876C7.64434 37.5252 7.5747 37.473 7.49803 37.433C7.42574 37.3953 7.34879 37.3672 7.26916 37.3495C7.19235 37.3322 7.11388 37.3232 7.03513 37.3228C6.88511 37.3205 6.73693 37.3559 6.60418 37.4258C6.48372 37.4893 6.37826 37.5779 6.29489 37.6855C6.21247 37.7941 6.1503 37.9166 6.11138 38.0472C6.07081 38.1777 6.04996 38.3135 6.04952 38.4502C6.04907 38.5967 6.07312 38.7423 6.12066 38.8809C6.16672 39.014 6.23658 39.1376 6.32685 39.2457C6.41243 39.349 6.51753 39.4345 6.63614 39.4972C6.76066 39.5616 6.89907 39.5945 7.03925 39.593C7.11949 39.5927 7.19941 39.583 7.2774 39.5642C7.44611 39.5254 7.60005 39.4388 7.72072 39.3148C7.78565 39.2463 7.83706 39.1663 7.87227 39.0788L8.41147 39.3879C8.35733 39.5143 8.27846 39.6285 8.1795 39.7239C8.07889 39.8211 7.96505 39.9037 7.84134 39.9692C7.71433 40.0368 7.57922 40.0881 7.43927 40.1217C7.30202 40.156 7.16114 40.1736 7.01966 40.1742C6.79162 40.1738 6.56692 40.1195 6.36397 40.0155C6.16842 39.9169 5.99347 39.7819 5.84848 39.6177C5.70314 39.4536 5.58828 39.2648 5.50929 39.0602C5.42977 38.8577 5.38886 38.642 5.38867 38.4244Z" fill="white"/>
<path d="M9.95193 40.1866C9.76435 40.1897 9.57809 40.1547 9.40449 40.0836C9.24906 40.0178 9.10872 39.9211 8.9921 39.7991C8.87942 39.68 8.79116 39.54 8.7323 39.3869C8.61267 39.0691 8.61267 38.7186 8.7323 38.4007C8.79151 38.2478 8.87973 38.1079 8.9921 37.9885C9.10891 37.8673 9.24924 37.7712 9.40449 37.7061C9.75564 37.566 10.1472 37.566 10.4983 37.7061C10.6537 37.7711 10.794 37.8672 10.9107 37.9885C11.0231 38.1079 11.1113 38.2478 11.1705 38.4007C11.2915 38.7183 11.2915 39.0693 11.1705 39.3869C11.112 39.5397 11.0245 39.6796 10.9128 39.7991C10.7968 39.9218 10.6563 40.0187 10.5004 40.0836C10.3265 40.1548 10.1399 40.1898 9.95193 40.1866ZM9.29933 38.8964C9.2982 38.9992 9.3153 39.1015 9.34985 39.1983C9.38072 39.2849 9.42758 39.365 9.488 39.4343C9.54487 39.5 9.61519 39.5527 9.69419 39.5889C9.77531 39.625 9.86312 39.6437 9.95193 39.6437C10.0407 39.6437 10.1286 39.625 10.2097 39.5889C10.2887 39.5527 10.359 39.5 10.4159 39.4343C10.4765 39.3644 10.5234 39.2836 10.554 39.1963C10.5885 39.0969 10.6053 38.9923 10.6035 38.8871C10.6045 38.785 10.5878 38.6836 10.554 38.5872C10.5234 38.4999 10.4765 38.4191 10.4159 38.3492C10.359 38.2835 10.2887 38.2308 10.2097 38.1946C10.1289 38.1575 10.0408 38.1388 9.95193 38.14C9.86317 38.1391 9.77538 38.1585 9.69522 38.1967C9.6165 38.2347 9.54635 38.2883 9.48903 38.3543C9.42795 38.424 9.38103 38.5048 9.35088 38.5924C9.31593 38.6899 9.29848 38.7928 9.29933 38.8964Z" fill="white"/>
<path d="M14.0061 40.1392H13.3679V38.7387C13.3806 38.5855 13.3446 38.4322 13.2648 38.3007C13.2312 38.2559 13.1871 38.2199 13.1365 38.1959C13.0858 38.1718 13.0301 38.1604 12.9741 38.1626C12.9074 38.1635 12.8414 38.1765 12.7792 38.2008C12.7116 38.2255 12.648 38.2603 12.5906 38.3038C12.5307 38.3516 12.4771 38.4067 12.4308 38.4677C12.3844 38.5297 12.3494 38.5995 12.3277 38.6738V40.131H11.6885V37.6443H12.2658V38.1029C12.3596 37.9422 12.4988 37.8128 12.6658 37.7309C12.8493 37.6401 13.0519 37.5945 13.2566 37.5979C13.389 37.5927 13.5205 37.6222 13.638 37.6834C13.7321 37.737 13.8106 37.8141 13.8659 37.9071C13.9215 38.0026 13.9595 38.1073 13.9783 38.2162C13.9989 38.3343 14.0093 38.454 14.0092 38.5738L14.0061 40.1392Z" fill="white"/>
<path d="M15.5066 40.1866C15.2962 40.1863 15.0872 40.1515 14.888 40.0835C14.6991 40.0231 14.524 39.9261 14.3726 39.7981L14.6117 39.4013C14.7497 39.5008 14.8993 39.5832 15.0571 39.6466C15.1949 39.7003 15.3412 39.7286 15.4891 39.7301C15.594 39.7353 15.6981 39.7102 15.7891 39.6579C15.8241 39.6365 15.8528 39.6061 15.872 39.5698C15.8912 39.5336 15.9003 39.4928 15.8984 39.4518C15.8991 39.4101 15.8872 39.3692 15.8642 39.3344C15.8412 39.2997 15.8082 39.2727 15.7695 39.257C15.6339 39.1986 15.494 39.1507 15.3509 39.1138C15.1891 39.0695 15.0499 39.0272 14.9386 38.986C14.8399 38.953 14.7468 38.9054 14.6623 38.8448C14.5967 38.7988 14.5442 38.7367 14.5097 38.6645C14.4757 38.5873 14.4592 38.5035 14.4612 38.4192C14.4594 38.3007 14.4848 38.1833 14.5355 38.0761C14.5841 37.9753 14.6545 37.8866 14.7416 37.8164C14.8338 37.7433 14.9387 37.6877 15.0509 37.6525C15.1764 37.6132 15.3071 37.5938 15.4386 37.5948C15.6174 37.5938 15.7952 37.6213 15.9654 37.6762C16.1319 37.7317 16.2853 37.8208 16.4159 37.938L16.1582 38.3234C16.0456 38.2375 15.9213 38.1681 15.7891 38.1173C15.6759 38.0739 15.5557 38.0512 15.4345 38.0503C15.3393 38.0471 15.2451 38.0702 15.1623 38.1173C15.1264 38.1398 15.0972 38.1716 15.078 38.2093C15.0587 38.2471 15.0501 38.2894 15.053 38.3316C15.0516 38.3698 15.0609 38.4076 15.0798 38.4409C15.1 38.4732 15.1285 38.4995 15.1623 38.5171C15.2101 38.5439 15.2605 38.5657 15.3128 38.582C15.3747 38.6027 15.452 38.6233 15.5437 38.6459C15.7149 38.6903 15.8623 38.7346 15.984 38.7789C16.0909 38.8155 16.1922 38.8669 16.285 38.9314C16.3571 38.9826 16.4158 39.0505 16.4561 39.1293C16.4946 39.2136 16.5132 39.3056 16.5108 39.3982C16.5151 39.5092 16.4928 39.6197 16.4456 39.7203C16.3984 39.8209 16.3278 39.9087 16.2396 39.9764C16.0257 40.1265 15.7676 40.2005 15.5066 40.1866Z" fill="white"/>
<path d="M17.6933 40.1866C17.5832 40.1938 17.4729 40.1753 17.3712 40.1323C17.2695 40.0894 17.1793 40.0233 17.1077 39.9393C16.9747 39.7744 16.9077 39.5271 16.9077 39.2055V37.6443H17.5459V39.0675C17.5459 39.4522 17.6833 39.6442 17.9583 39.6435C18.0865 39.6423 18.2116 39.6036 18.3181 39.5322C18.4424 39.447 18.5405 39.3289 18.6016 39.1911V37.6453H19.2398V39.4065C19.2354 39.4569 19.2481 39.5074 19.2758 39.5497C19.2909 39.5654 19.309 39.5777 19.3291 39.5858C19.3491 39.594 19.3707 39.5978 19.3923 39.5971V40.1402C19.3396 40.1512 19.2862 40.1591 19.2325 40.1639C19.1903 40.1639 19.1511 40.1639 19.116 40.1639C19.0171 40.1684 18.9194 40.1405 18.8377 40.0846C18.8026 40.0594 18.7732 40.0271 18.7513 39.9898C18.7295 39.9525 18.7157 39.9111 18.7109 39.8682L18.6964 39.6683C18.5922 39.8337 18.4441 39.9671 18.2686 40.0537C18.0898 40.1421 17.8928 40.1876 17.6933 40.1866Z" fill="white"/>
<path d="M19.8694 36.6601H20.5076V39.3395C20.503 39.4167 20.5269 39.493 20.5746 39.5539C20.5989 39.5797 20.6286 39.5998 20.6615 39.6128C20.6945 39.6258 20.73 39.6314 20.7653 39.6291C20.8079 39.6285 20.8502 39.6222 20.8911 39.6105C20.9363 39.5982 20.9804 39.5823 21.0231 39.5631L21.1086 40.0485C21.013 40.0928 20.9122 40.125 20.8086 40.1444C20.7068 40.1648 20.6032 40.1759 20.4993 40.1773C20.4153 40.1826 20.331 40.1712 20.2514 40.1438C20.1718 40.1164 20.0984 40.0735 20.0354 40.0176C19.9779 39.9574 19.9336 39.8859 19.9052 39.8077C19.8768 39.7294 19.865 39.6462 19.8705 39.5631L19.8694 36.6601Z" fill="white"/>
<path d="M22.8818 40.0104C22.7792 40.0545 22.6742 40.0927 22.5673 40.1248C22.4407 40.1634 22.309 40.1828 22.1766 40.1825C22.0919 40.1831 22.0075 40.1716 21.926 40.1485C21.8507 40.1293 21.7804 40.0941 21.7199 40.0454C21.6595 39.9933 21.6119 39.9281 21.5807 39.8548C21.5433 39.7651 21.5253 39.6685 21.5281 39.5714V38.1389H21.1992V37.6484H21.5281V36.8384H22.1663V37.6484H22.691V38.1389H22.1663V39.357C22.1633 39.3921 22.1685 39.4273 22.1813 39.46C22.1942 39.4927 22.2145 39.522 22.2405 39.5456C22.289 39.5825 22.3486 39.6018 22.4096 39.6002C22.4762 39.6001 22.5424 39.5889 22.6055 39.5673C22.6683 39.5446 22.7199 39.526 22.758 39.5096L22.8818 40.0104Z" fill="white"/>
<path d="M23.2153 37.296V36.6601H23.8535V37.2939L23.2153 37.296ZM23.2153 40.1392V37.6443H23.8535V40.1392H23.2153Z" fill="white"/>
<path d="M26.7502 40.1392H26.111V38.7387C26.1237 38.5855 26.0876 38.4322 26.0079 38.3007C25.9743 38.2559 25.9302 38.2199 25.8796 38.1959C25.8289 38.1718 25.7732 38.1604 25.7172 38.1627C25.6502 38.1636 25.5838 38.1765 25.5213 38.2008C25.454 38.2257 25.3908 38.2604 25.3337 38.3038C25.2736 38.3514 25.2199 38.4064 25.1739 38.4677C25.1279 38.5299 25.093 38.5997 25.0708 38.6738V40.131H24.4326V37.6443H25.0089V38.1029C25.1034 37.9424 25.2428 37.8131 25.41 37.7309C25.5935 37.6401 25.796 37.5945 26.0007 37.5979C26.1328 37.5927 26.264 37.6222 26.3811 37.6835C26.4757 37.7366 26.5547 37.8138 26.61 37.9071C26.6652 38.0028 26.7032 38.1074 26.7224 38.2162C26.743 38.3343 26.7534 38.454 26.7533 38.5738L26.7502 40.1392Z" fill="white"/>
<path d="M28.284 40.1536C28.1255 40.1552 27.9688 40.12 27.8263 40.0506C27.6906 39.9843 27.5699 39.891 27.4716 39.7764C27.37 39.6582 27.2916 39.5219 27.2407 39.3745C27.1856 39.2183 27.158 39.0538 27.1592 38.8881C27.1579 38.7161 27.1869 38.5452 27.2448 38.3832C27.2989 38.2326 27.3796 38.093 27.4829 37.9709C27.5869 37.8508 27.7158 37.7548 27.8608 37.6899C28.0058 37.6249 28.1633 37.5924 28.3222 37.5948C28.5007 37.5909 28.6769 37.6362 28.8315 37.7257C28.9776 37.8129 29.1015 37.9328 29.1933 38.0761V37.6381H29.7511V40.0196C29.7545 40.1905 29.7193 40.36 29.648 40.5153C29.5784 40.6587 29.4781 40.785 29.3542 40.8853C29.2242 40.9909 29.0751 41.0703 28.915 41.1192C28.7353 41.1743 28.5482 41.2014 28.3603 41.1996C28.1235 41.2073 27.888 41.1611 27.6716 41.0646C27.4857 40.9738 27.3223 40.8429 27.1932 40.6813L27.5407 40.3432C27.6379 40.4614 27.761 40.5555 27.9005 40.6184C28.0443 40.6861 28.2013 40.7213 28.3603 40.7214C28.4563 40.722 28.5519 40.7081 28.6438 40.6802C28.7315 40.6549 28.8133 40.6122 28.884 40.5545C28.9553 40.4951 29.0117 40.4199 29.049 40.335C29.0899 40.2371 29.1103 40.1319 29.1088 40.0258V39.7115C29.0275 39.8535 28.9063 39.9685 28.7603 40.0423C28.6129 40.1175 28.4495 40.1557 28.284 40.1536ZM28.4985 39.6487C28.5665 39.6492 28.6342 39.638 28.6985 39.6157C28.761 39.5934 28.8203 39.5629 28.8748 39.525C28.928 39.4873 28.9758 39.4426 29.017 39.3921C29.0568 39.3432 29.0891 39.2886 29.1129 39.2303V38.6346C29.0593 38.4936 28.9658 38.3711 28.8438 38.2822C28.7336 38.1978 28.5991 38.1512 28.4603 38.1492C28.3673 38.1475 28.2754 38.1695 28.1933 38.2131C28.1139 38.2559 28.0438 38.3141 27.9871 38.3842C27.9293 38.4576 27.885 38.5406 27.8562 38.6295C27.8261 38.722 27.8108 38.8187 27.8108 38.916C27.8101 39.0136 27.8279 39.1104 27.8634 39.2014C27.8967 39.2875 27.946 39.3666 28.0087 39.4343C28.0697 39.5007 28.1433 39.5543 28.2252 39.592C28.311 39.6307 28.4043 39.6501 28.4985 39.6487Z" fill="white"/>
<path d="M33.5482 37.6443C33.5106 37.6103 33.4698 37.5799 33.4265 37.5536C33.3582 37.5105 33.2865 37.4729 33.2121 37.4413C33.1231 37.4036 33.0314 37.3726 32.9379 37.3485C32.8399 37.3229 32.7391 37.3101 32.6378 37.3104C32.4953 37.3009 32.3534 37.337 32.2327 37.4134C32.1893 37.4459 32.1544 37.4886 32.1313 37.5376C32.1081 37.5866 32.0972 37.6406 32.0997 37.6948C32.097 37.7565 32.1147 37.8173 32.1502 37.8679C32.1887 37.9186 32.238 37.9602 32.2945 37.9895C32.3714 38.0297 32.4522 38.0619 32.5358 38.0853C32.6327 38.1132 32.742 38.1441 32.8719 38.175C33.0368 38.2203 33.1863 38.2677 33.3214 38.3182C33.4454 38.3627 33.5614 38.4271 33.6647 38.5089C33.7568 38.5826 33.8308 38.6764 33.8812 38.783C33.9354 38.9066 33.9615 39.0407 33.9575 39.1756C33.9618 39.3363 33.9264 39.4956 33.8544 39.6394C33.7888 39.7634 33.694 39.8695 33.5781 39.9485C33.4563 40.0301 33.3208 40.0891 33.1781 40.1227C33.0227 40.1594 32.8635 40.1777 32.7038 40.1773C32.4486 40.1772 32.1949 40.1386 31.9512 40.0629C31.713 39.9913 31.4878 39.8821 31.2842 39.7393L31.5749 39.1725C31.6219 39.2155 31.6738 39.2529 31.7296 39.2838C31.8143 39.3358 31.9025 39.3819 31.9935 39.4219C32.1026 39.4708 32.2157 39.5101 32.3316 39.5394C32.4564 39.5707 32.5845 39.5866 32.7131 39.5868C33.075 39.5868 33.2564 39.4704 33.2564 39.2395C33.2583 39.172 33.2364 39.106 33.1946 39.053C33.1458 38.9968 33.0858 38.9515 33.0183 38.9201C32.9293 38.8778 32.8369 38.8433 32.742 38.817C32.6337 38.7851 32.5131 38.75 32.3801 38.714C32.2363 38.6755 32.0954 38.627 31.9584 38.5687C31.8497 38.523 31.749 38.46 31.6605 38.3821C31.5832 38.3141 31.5222 38.2296 31.4821 38.1348C31.4396 38.028 31.4193 37.9137 31.4223 37.7988C31.4196 37.6415 31.452 37.4855 31.5172 37.3423C31.5784 37.212 31.6691 37.0977 31.7821 37.0084C31.8991 36.9159 32.0323 36.846 32.1749 36.8023C32.331 36.7551 32.4933 36.7318 32.6564 36.7333C32.8803 36.7307 33.1028 36.7687 33.3131 36.8456C33.4981 36.9119 33.6743 37.0005 33.8379 37.1094L33.5482 37.6443Z" fill="white"/>
<path d="M35.5403 40.1866C35.3527 40.1897 35.1665 40.1547 34.9929 40.0835C34.8398 40.0187 34.7014 39.9237 34.5859 39.8041C34.4705 39.6846 34.3802 39.5431 34.3207 39.3879C34.1997 39.0703 34.1997 38.7193 34.3207 38.4017C34.3791 38.2485 34.4674 38.1083 34.5805 37.9895C34.6969 37.8678 34.8373 37.7716 34.9929 37.7071C35.1663 37.6355 35.3527 37.6004 35.5403 37.6041C35.7273 37.6003 35.913 37.6354 36.0857 37.7071C36.2384 37.7717 36.3765 37.8665 36.4915 37.9859C36.6065 38.1053 36.6961 38.2467 36.7548 38.4017C36.8758 38.7193 36.8758 39.0703 36.7548 39.3879C36.6967 39.5406 36.6095 39.6806 36.4981 39.8001C36.382 39.9227 36.2415 40.0196 36.0857 40.0846C35.9127 40.1551 35.7272 40.1898 35.5403 40.1866ZM34.8877 38.8964C34.8863 38.9992 34.903 39.1014 34.9372 39.1983C34.9685 39.2847 35.0153 39.3647 35.0754 39.4343C35.1322 39.5 35.2026 39.5527 35.2816 39.5889C35.3627 39.625 35.4505 39.6437 35.5393 39.6437C35.6281 39.6437 35.7159 39.625 35.797 39.5889C35.876 39.5527 35.9464 39.5 36.0032 39.4343C36.0639 39.3644 36.1108 39.2836 36.1414 39.1963C36.1767 39.0971 36.1939 38.9924 36.1919 38.8871C36.1931 38.7849 36.176 38.6834 36.1414 38.5872C36.1108 38.4999 36.0639 38.4191 36.0032 38.3492C35.9464 38.2835 35.876 38.2308 35.797 38.1946C35.7166 38.1576 35.6289 38.1389 35.5403 38.14C35.4512 38.139 35.3631 38.1584 35.2826 38.1966C35.2039 38.2347 35.1337 38.2883 35.0764 38.3543C35.0157 38.4242 34.9688 38.505 34.9382 38.5924C34.9051 38.6902 34.8893 38.7931 34.8919 38.8964H34.8877Z" fill="white"/>
<path d="M37.2732 36.6601H37.9114V39.3395C37.9069 39.4167 37.9307 39.493 37.9784 39.5539C38.0027 39.5797 38.0324 39.5998 38.0653 39.6128C38.0983 39.6258 38.1338 39.6314 38.1691 39.6291C38.2117 39.6285 38.254 39.6222 38.2949 39.6105C38.3398 39.5983 38.3836 39.5825 38.4259 39.5631L38.5125 40.0485C38.4168 40.0927 38.316 40.1249 38.2124 40.1444C38.1106 40.1648 38.007 40.1758 37.9032 40.1773C37.8191 40.1826 37.7348 40.1712 37.6552 40.1438C37.5756 40.1164 37.5022 40.0735 37.4392 40.0176C37.3817 39.9574 37.3374 39.8859 37.309 39.8077C37.2806 39.7294 37.2688 39.6462 37.2743 39.5631L37.2732 36.6601Z" fill="white"/>
<path d="M39.5506 40.1866C39.4404 40.1939 39.3301 40.1754 39.2284 40.1324C39.1267 40.0895 39.0365 40.0233 38.965 39.9393C38.831 39.7744 38.7588 39.5271 38.7588 39.2055V37.6443H39.398V39.0675C39.398 39.4522 39.5355 39.6442 39.8104 39.6435C39.9386 39.6421 40.0636 39.6034 40.1702 39.5322C40.2945 39.447 40.3926 39.3289 40.4537 39.1911V37.6453H41.0919V39.4065C41.0873 39.4568 41.0996 39.5072 41.1269 39.5497C41.1421 39.5654 41.1604 39.5778 41.1806 39.5859C41.2009 39.5941 41.2226 39.5979 41.2445 39.5971V40.1402C41.1917 40.1511 41.1383 40.159 41.0847 40.1639C41.0414 40.1639 41.0022 40.1639 40.9682 40.1639C40.8689 40.1684 40.7709 40.1405 40.6888 40.0846C40.6539 40.0593 40.6246 40.0269 40.603 39.9897C40.5813 39.9524 40.5677 39.911 40.563 39.8682L40.5485 39.6683C40.4436 39.8336 40.2953 39.9669 40.1197 40.0537C39.9428 40.1413 39.748 40.1868 39.5506 40.1866Z" fill="white"/>
<path d="M43.2282 40.0104C43.1258 40.0548 43.0207 40.093 42.9137 40.1248C42.7871 40.1635 42.6554 40.183 42.523 40.1825C42.4386 40.1831 42.3546 40.1716 42.2735 40.1485C42.1981 40.1295 42.1277 40.0943 42.0673 40.0454C42.0085 39.9929 41.9623 39.9277 41.9322 39.8548C41.8948 39.7651 41.8769 39.6685 41.8797 39.5714V38.1389H41.5508V37.6484H41.8797V36.8384H42.5178V37.6484H43.0426V38.1389H42.5178V39.357C42.5142 39.3916 42.5186 39.4266 42.5306 39.4593C42.5425 39.492 42.5618 39.5215 42.5869 39.5456C42.6354 39.5825 42.6951 39.6018 42.756 39.6002C42.8226 39.6001 42.8888 39.5889 42.9519 39.5673C43.0148 39.5446 43.0663 39.526 43.1045 39.5096L43.2282 40.0104Z" fill="white"/>
<path d="M43.5625 37.296V36.6601H44.2007V37.2939L43.5625 37.296ZM43.5625 40.1392V37.6443H44.2007V40.1392H43.5625Z" fill="white"/>
<path d="M45.9295 40.1866C45.7419 40.1897 45.5556 40.1547 45.382 40.0836C45.2265 40.0181 45.0861 39.9213 44.9697 39.7991C44.857 39.68 44.7687 39.54 44.7099 39.3869C44.5889 39.0693 44.5889 38.7183 44.7099 38.4007C44.7691 38.2478 44.8573 38.1079 44.9697 37.9885C45.0862 37.867 45.2266 37.7709 45.382 37.7061C45.5555 37.6345 45.7419 37.5994 45.9295 37.6031C46.1165 37.5992 46.3022 37.6343 46.4749 37.7061C46.6301 37.7712 46.7705 37.8673 46.8873 37.9885C46.9996 38.1079 47.0878 38.2478 47.1471 38.4007C47.2667 38.7186 47.2667 39.0691 47.1471 39.3869C47.0886 39.5397 47.001 39.6796 46.8893 39.7991C46.7733 39.9218 46.6328 40.0187 46.4769 40.0836C46.3033 40.1545 46.1171 40.1896 45.9295 40.1866ZM45.2769 38.8964C45.2752 38.9993 45.2924 39.1016 45.3274 39.1983C45.3583 39.2849 45.4051 39.365 45.4656 39.4343C45.5224 39.5 45.5927 39.5527 45.6718 39.5889C45.7529 39.625 45.8407 39.6437 45.9295 39.6437C46.0183 39.6437 46.1061 39.625 46.1872 39.5889C46.2662 39.5527 46.3366 39.5 46.3934 39.4343C46.4537 39.3641 46.5006 39.2834 46.5316 39.1963C46.5661 39.0969 46.5828 38.9923 46.5811 38.8871C46.5821 38.785 46.5653 38.6836 46.5316 38.5872C46.5006 38.5001 46.4537 38.4194 46.3934 38.3492C46.3366 38.2835 46.2662 38.2308 46.1872 38.1946C46.1064 38.1575 46.0184 38.1388 45.9295 38.14C45.8407 38.1391 45.7529 38.1585 45.6728 38.1967C45.5941 38.2347 45.5239 38.2883 45.4666 38.3543C45.4055 38.424 45.3586 38.5048 45.3284 38.5924C45.293 38.6898 45.2755 38.7928 45.2769 38.8964Z" fill="white"/>
<path d="M49.9837 40.1392H49.3445V38.7387C49.3571 38.5855 49.3211 38.4322 49.2414 38.3007C49.2077 38.2559 49.1637 38.2199 49.113 38.1959C49.0624 38.1718 49.0067 38.1604 48.9507 38.1627C48.8836 38.1636 48.8173 38.1765 48.7548 38.2008C48.6875 38.2257 48.6243 38.2604 48.5671 38.3038C48.5071 38.3514 48.4534 38.4064 48.4073 38.4677C48.3609 38.5297 48.326 38.5995 48.3042 38.6738V40.131H47.665V37.6443H48.2424V38.1029C48.3362 37.9422 48.4753 37.8128 48.6424 37.7309C48.8259 37.6401 49.0284 37.5945 49.2331 37.5979C49.3653 37.5927 49.4964 37.6222 49.6136 37.6835C49.7082 37.7366 49.7871 37.8138 49.8424 37.9071C49.8976 38.0028 49.9356 38.1074 49.9548 38.2162C49.9755 38.3343 49.9858 38.454 49.9858 38.5738L49.9837 40.1392Z" fill="white"/>
<path d="M51.4837 40.1866C51.2732 40.1863 51.0643 40.1515 50.8651 40.0835C50.6762 40.0231 50.501 39.9261 50.3496 39.7981L50.5919 39.4013C50.7298 39.5008 50.8794 39.5832 51.0373 39.6466C51.1747 39.7003 51.3207 39.7286 51.4682 39.7301C51.5734 39.7354 51.6779 39.7104 51.7692 39.6579C51.8041 39.6364 51.8326 39.6059 51.8518 39.5697C51.8711 39.5335 51.8803 39.4928 51.8785 39.4518C51.8793 39.4101 51.8674 39.3692 51.8444 39.3344C51.8213 39.2996 51.7883 39.2727 51.7497 39.257C51.6137 39.1985 51.4734 39.1506 51.3301 39.1138C51.1682 39.0695 51.03 39.0272 50.9177 38.986C50.819 38.953 50.7259 38.9054 50.6414 38.8448C50.5759 38.7988 50.5233 38.7367 50.4888 38.6645C50.4548 38.5873 50.4383 38.5035 50.4403 38.4192C50.4385 38.3007 50.4639 38.1833 50.5146 38.0761C50.5632 37.9753 50.6337 37.8866 50.7208 37.8164C50.8129 37.7433 50.9178 37.6877 51.03 37.6525C51.1555 37.6132 51.2863 37.5938 51.4177 37.5948C51.5965 37.5938 51.7743 37.6213 51.9445 37.6762C52.1111 37.7317 52.2644 37.8208 52.395 37.938L52.1373 38.3234C52.0247 38.2375 51.9004 38.1681 51.7682 38.1173C51.655 38.0739 51.5348 38.0512 51.4136 38.0503C51.3184 38.0471 51.2242 38.0702 51.1414 38.1173C51.1053 38.1396 51.076 38.1714 51.0568 38.2092C51.0375 38.247 51.029 38.2893 51.0321 38.3316C51.0304 38.3697 51.0393 38.4075 51.0579 38.4409C51.0788 38.473 51.1075 38.4992 51.1414 38.5171C51.1892 38.5439 51.2396 38.5657 51.2919 38.582C51.3538 38.6027 51.4311 38.6233 51.5229 38.6459C51.694 38.6903 51.8414 38.7346 51.9641 38.7789C52.0706 38.8157 52.1716 38.8671 52.2641 38.9314C52.336 38.9829 52.3946 39.0507 52.4353 39.1293C52.4737 39.2136 52.4924 39.3056 52.4899 39.3982C52.4942 39.5092 52.4719 39.6197 52.4247 39.7203C52.3775 39.8209 52.3069 39.9087 52.2188 39.9764C52.0043 40.1269 51.7454 40.201 51.4837 40.1866Z" fill="white"/>
<path d="M53.9092 38.4244C53.9096 38.2152 53.9476 38.0079 54.0216 37.8122C54.0949 37.6132 54.2054 37.4299 54.3473 37.2722C54.4948 37.1101 54.6732 36.979 54.8721 36.8868C55.0929 36.7848 55.334 36.734 55.5773 36.7384C55.8602 36.732 56.1394 36.8033 56.3845 36.9445C56.6011 37.0704 56.7771 37.2557 56.8918 37.4784L56.3866 37.8256C56.3467 37.737 56.292 37.6558 56.2247 37.5855C56.1645 37.5235 56.095 37.4714 56.0185 37.4309C55.9466 37.3933 55.87 37.3652 55.7907 37.3475C55.7139 37.3302 55.6354 37.3212 55.5567 37.3207C55.4066 37.3183 55.2584 37.3537 55.1257 37.4237C55.0053 37.4873 54.8999 37.5758 54.8164 37.6834C54.7343 37.7922 54.6722 37.9147 54.6329 38.0451C54.5924 38.1756 54.5715 38.3114 54.5711 38.4481C54.5706 38.5946 54.5947 38.7402 54.6422 38.8789C54.6883 39.0119 54.7582 39.1355 54.8484 39.2437C54.935 39.348 55.042 39.4335 55.1628 39.4951C55.287 39.5595 55.4251 39.5924 55.5649 39.5909C55.6452 39.5906 55.7251 39.5809 55.8031 39.5621C55.9718 39.5234 56.1257 39.4368 56.2464 39.3127C56.312 39.2446 56.3638 39.1645 56.399 39.0767L56.9371 39.3859C56.8837 39.5123 56.8051 39.6266 56.7062 39.7218C56.6056 39.8191 56.4918 39.9017 56.368 39.9671C56.2406 40.0346 56.1052 40.0858 55.9649 40.1196C55.828 40.1539 55.6875 40.1716 55.5464 40.1722C55.3167 40.1747 55.0898 40.1224 54.8845 40.0196C54.6888 39.9212 54.5138 39.7862 54.369 39.6219C54.2243 39.4574 54.1099 39.2686 54.0308 39.0643C53.9505 38.8605 53.9092 38.6434 53.9092 38.4244Z" fill="white"/>
<path d="M58.473 40.1866C58.2854 40.1898 58.0991 40.1547 57.9255 40.0836C57.7698 40.0184 57.6294 39.9215 57.5131 39.7992C57.4 39.6803 57.3117 39.5402 57.2533 39.3869C57.1324 39.0693 57.1324 38.7183 57.2533 38.4007C57.3121 38.2477 57.4004 38.1076 57.5131 37.9885C57.6295 37.8668 57.7699 37.7706 57.9255 37.7061C58.099 37.6345 58.2853 37.5994 58.473 37.6031C58.6599 37.5993 58.8456 37.6344 59.0183 37.7061C59.1736 37.7712 59.3139 37.8673 59.4307 37.9885C59.5431 38.1077 59.6311 38.2477 59.6895 38.4007C59.8105 38.7183 59.8105 39.0693 59.6895 39.3869C59.6318 39.5398 59.5445 39.6799 59.4328 39.7992C59.3168 39.9218 59.1763 40.0187 59.0204 40.0836C58.8467 40.1545 58.6605 40.1895 58.473 40.1866ZM57.8203 38.8964C57.8187 38.9993 57.8358 39.1016 57.8709 39.1983C57.9014 39.2851 57.9483 39.3652 58.009 39.4343C58.0656 39.5003 58.136 39.5531 58.2152 39.5889C58.3362 39.6441 58.4717 39.6588 58.6016 39.631C58.7316 39.6032 58.8492 39.5342 58.9369 39.4343C58.9972 39.3642 59.044 39.2835 59.075 39.1963C59.1095 39.0969 59.1263 38.9923 59.1245 38.8871C59.1256 38.7851 59.1088 38.6836 59.075 38.5872C59.044 38.5001 58.9972 38.4194 58.9369 38.3492C58.8789 38.2833 58.8073 38.2308 58.727 38.1952C58.6467 38.1597 58.5597 38.1419 58.4719 38.1431C58.3828 38.1424 58.2947 38.1618 58.2142 38.1998C58.1352 38.2374 58.065 38.2911 58.008 38.3574C57.9465 38.4268 57.8996 38.5077 57.8698 38.5955C57.8355 38.692 57.8187 38.7939 57.8203 38.8964Z" fill="white"/>
<path d="M64.0849 40.1392H63.4467V38.7387C63.4582 38.5856 63.4222 38.4326 63.3436 38.3007C63.3114 38.2561 63.2686 38.2202 63.2192 38.1961C63.1697 38.172 63.1151 38.1605 63.0601 38.1626C62.9272 38.1649 62.8 38.2167 62.7034 38.3079C62.5897 38.409 62.5068 38.5401 62.4642 38.6861V40.1392H61.8301V38.7387C61.8417 38.5856 61.8057 38.4326 61.7271 38.3007C61.6948 38.2561 61.6521 38.2202 61.6026 38.1961C61.5532 38.172 61.4985 38.1605 61.4435 38.1626C61.3118 38.1655 61.1857 38.2165 61.0889 38.3059C60.9734 38.4049 60.8895 38.5357 60.8476 38.682V40.1392H60.2095V37.6443H60.7858V38.1029C60.8744 37.9449 61.0059 37.8152 61.1652 37.7288C61.3342 37.6391 61.5234 37.5941 61.7147 37.5979C61.8902 37.5864 62.0638 37.6408 62.2013 37.7504C62.3136 37.8484 62.3904 37.9806 62.4199 38.1266C62.5126 37.9644 62.6458 37.8292 62.8065 37.7339C62.9687 37.6415 63.1528 37.5945 63.3395 37.5979C63.4703 37.5928 63.6001 37.6223 63.7158 37.6834C63.8101 37.737 63.889 37.814 63.9447 37.9071C63.9998 38.0028 64.0378 38.1074 64.057 38.2162C64.0773 38.3343 64.0874 38.454 64.0869 38.5738L64.0849 40.1392Z" fill="white"/>
<path d="M66.1386 40.1866C65.958 40.1912 65.7796 40.1459 65.6231 40.0557C65.4791 39.9706 65.3608 39.8481 65.2808 39.7012V41.1532H64.6416V37.6443H65.1994V38.072C65.2884 37.9292 65.4113 37.8107 65.5571 37.7267C65.711 37.6409 65.885 37.5975 66.0612 37.601C66.2227 37.5999 66.3823 37.6351 66.5283 37.7041C66.6686 37.7704 66.7942 37.8643 66.8974 37.9802C67.0034 38.1013 67.086 38.2411 67.1407 38.3924C67.1997 38.5517 67.2294 38.7203 67.2283 38.8902C67.2295 39.0631 67.2023 39.2351 67.1479 39.3993C67.098 39.5493 67.0212 39.689 66.9211 39.8115C66.8268 39.927 66.7091 40.0211 66.5757 40.0877C66.4398 40.1546 66.29 40.1885 66.1386 40.1866ZM65.9241 39.6487C66.0161 39.6495 66.107 39.6283 66.1891 39.5868C66.2683 39.546 66.3384 39.4896 66.3953 39.4209C66.4534 39.3482 66.4984 39.2659 66.5283 39.1777C66.5599 39.0859 66.576 38.9894 66.5757 38.8923C66.5766 38.7919 66.5587 38.6923 66.5231 38.5986C66.4909 38.5115 66.4418 38.4317 66.3788 38.3636C66.3173 38.2968 66.243 38.2432 66.1602 38.2059C66.0739 38.1675 65.9804 38.1482 65.886 38.1492C65.8229 38.1498 65.7603 38.1602 65.7004 38.1802C65.6375 38.2001 65.578 38.2297 65.5241 38.2677C65.4701 38.306 65.4213 38.3511 65.3787 38.4017C65.337 38.4509 65.3042 38.5071 65.2818 38.5676V39.154C65.3363 39.2932 65.4267 39.4155 65.5437 39.5085C65.6502 39.5982 65.7848 39.6478 65.9241 39.6487Z" fill="white"/>
<path d="M68.3444 40.1866C68.229 40.1878 68.1143 40.1675 68.0063 40.1268C67.9054 40.0901 67.8129 40.0337 67.7341 39.9609C67.6589 39.8898 67.5983 39.8048 67.5557 39.7105C67.5116 39.6116 67.4895 39.5044 67.4908 39.3962C67.49 39.2828 67.5173 39.1709 67.5702 39.0705C67.6231 38.9702 67.6978 38.8829 67.7887 38.815C67.8903 38.7411 68.0041 38.6857 68.1248 38.6511C68.264 38.6097 68.4086 38.5896 68.5537 38.5913C68.663 38.591 68.772 38.6007 68.8795 38.6202C68.9771 38.6361 69.0725 38.6631 69.164 38.7006V38.5584C69.1685 38.4885 69.1582 38.4184 69.1339 38.3527C69.1095 38.2871 69.0717 38.2272 69.0228 38.1771C68.9074 38.0816 68.7598 38.034 68.6104 38.0441C68.4769 38.044 68.3446 38.0681 68.2197 38.1152C68.0815 38.1678 67.9503 38.237 67.8289 38.3213L67.6331 37.9174C67.9394 37.7088 68.3016 37.5974 68.6723 37.5979C69.031 37.5979 69.3097 37.6858 69.5084 37.8617C69.7063 38.0379 69.8063 38.2935 69.8063 38.6264V39.4024C69.8017 39.4527 69.8141 39.5031 69.8414 39.5456C69.8565 39.5611 69.8746 39.5734 69.8947 39.5815C69.9147 39.5897 69.9362 39.5936 69.9579 39.593V40.1361C69.8657 40.1562 69.7718 40.1672 69.6775 40.1691C69.5781 40.1756 69.4797 40.1471 69.3991 40.0887C69.3335 40.0346 69.2902 39.9583 69.2774 39.8744L69.263 39.7363C69.1567 39.8782 69.0177 39.9923 68.8578 40.0691C68.698 40.1471 68.5223 40.1872 68.3444 40.1866ZM68.5248 39.7198C68.6306 39.7209 68.7356 39.7016 68.8341 39.6631C68.9212 39.6317 68.9991 39.5793 69.0609 39.5106C69.0913 39.4907 69.1165 39.4639 69.1344 39.4323C69.1523 39.4008 69.1625 39.3654 69.164 39.3292V39.0437C69.0833 39.0139 69.0002 38.9908 68.9156 38.9747C68.8311 38.9578 68.7451 38.9491 68.6589 38.9489C68.5155 38.9427 68.3737 38.9816 68.2537 39.0602C68.2082 39.0893 68.1703 39.1287 68.143 39.1753C68.1157 39.2218 68.0997 39.2742 68.0965 39.328C68.0933 39.3819 68.1029 39.4357 68.1245 39.4852C68.146 39.5347 68.179 39.5783 68.2207 39.6126C68.3053 39.6847 68.4137 39.7229 68.5248 39.7198Z" fill="white"/>
<path d="M72.7176 40.1392H72.0784V38.7387C72.091 38.5855 72.0549 38.4322 71.9753 38.3007C71.9416 38.2559 71.8976 38.2199 71.8469 38.1959C71.7963 38.1718 71.7406 38.1604 71.6845 38.1626C71.6175 38.1636 71.5512 38.1765 71.4887 38.2008C71.4214 38.2257 71.3582 38.2604 71.301 38.3038C71.2409 38.3514 71.1872 38.4064 71.1412 38.4677C71.0948 38.5296 71.0599 38.5995 71.0381 38.6738V40.1309H70.3989V37.6443H70.9763V38.1029C71.0701 37.9422 71.2092 37.8128 71.3763 37.7308C71.5598 37.6401 71.7623 37.5945 71.967 37.5979C72.0991 37.5951 72.2296 37.6271 72.3454 37.6906C72.44 37.7438 72.5189 37.8209 72.5743 37.9143C72.6294 38.01 72.6675 38.1146 72.6866 38.2234C72.7073 38.3415 72.7177 38.4612 72.7176 38.581V40.1392Z" fill="white"/>
<path d="M73.3271 40.6246C73.3788 40.6403 73.4315 40.6523 73.4849 40.6607C73.5271 40.6679 73.5699 40.6717 73.6127 40.672C73.6522 40.6727 73.6913 40.6646 73.7272 40.6483C73.7658 40.6297 73.7988 40.6012 73.823 40.5659C73.8573 40.514 73.8859 40.4588 73.9086 40.401C73.9375 40.3309 73.9674 40.2443 73.9993 40.1392L73.0127 37.6443H73.6705L74.3468 39.5868L74.9468 37.6443H75.5468L74.4994 40.6328C74.4416 40.8035 74.3338 40.9529 74.1901 41.0615C74.0327 41.1763 73.8414 41.235 73.6467 41.2285C73.5947 41.2283 73.5426 41.2245 73.4911 41.2171C73.4353 41.2082 73.3805 41.1944 73.3271 41.1759V40.6246Z" fill="white"/>
</g>
<defs>
<clipPath id="clip0_242_438">
<rect width="74.7091" height="41.2295" fill="white" transform="translate(0.895508)"/>
</clipPath>
</defs>
</svg>
