<svg width="57" height="20" viewBox="0 0 57 20" fill="none" xmlns="http://www.w3.org/2000/svg">
<path d="M20.1028 0.26616L16.8665 19.7338H12.45L7.11973 9.5057H7.00551L5.2922 19.7338H0L3.23624 0.26616H7.7289L12.983 10.4563H13.1353L14.8106 0.26616H20.1028Z" fill="white"/>
<path d="M19.3698 19.7338L22.6061 0.26616H36.6552L35.9318 4.52471H27.1749L26.6419 7.87072H34.6754L33.952 12.1293H25.9185L25.3854 15.4753H34.1043L33.3809 19.7338H19.3698Z" fill="white"/>
<path d="M56.489 10.3422C56.1337 12.4588 55.4293 14.2332 54.376 15.6654C53.3226 17.0976 52.044 18.1781 50.5401 18.9068C49.0362 19.6356 47.4276 20 45.7143 20C43.8867 20 42.3004 19.6039 40.9551 18.8118C39.6098 18.0196 38.6294 16.8599 38.0139 15.3327C37.3984 13.8054 37.2747 11.9392 37.6427 9.73384C37.9854 7.61724 38.6834 5.8365 39.7367 4.39163C40.7901 2.94677 42.0751 1.85361 43.5917 1.11217C45.1083 0.370722 46.7296 0 48.4556 0C50.2704 0 51.8473 0.399239 53.1862 1.19772C54.5314 1.9962 55.5086 3.1654 56.1178 4.70532C56.7333 6.24525 56.8571 8.12421 56.489 10.3422ZM51.1588 9.73384C51.3364 8.6185 51.3491 7.68061 51.1968 6.92015C51.0445 6.15336 50.7241 5.57668 50.2355 5.19011C49.7469 4.79721 49.0901 4.60076 48.2652 4.60076C47.326 4.60076 46.4948 4.8289 45.7714 5.28517C45.048 5.74144 44.4483 6.39734 43.9724 7.25285C43.4965 8.10837 43.1633 9.13815 42.973 10.3422C42.7699 11.4702 42.7509 12.4081 42.9159 13.1559C43.0872 13.9037 43.4235 14.4645 43.9248 14.8384C44.4325 15.2123 45.0924 15.3992 45.9046 15.3992C46.8311 15.3992 47.6497 15.1774 48.3604 14.7338C49.0774 14.2902 49.6707 13.647 50.1403 12.8042C50.6162 11.9613 50.9557 10.9379 51.1588 9.73384Z" fill="white"/>
</svg>
