<svg width="178" height="40" viewBox="0 0 178 40" fill="none" xmlns="http://www.w3.org/2000/svg">
<g clip-path="url(#clip0_1648_5319)">
<path d="M45.6963 3.15552L41.2689 12.6946L53.9133 39.9399H62.7759L45.6963 3.15552ZM35.0876 27.9579C34.4138 28.1209 33.773 28.3992 33.1931 28.7805C34.2313 27.4793 35.6713 26.5629 37.2857 26.176L37.0341 25.1263C35.0849 25.5987 33.3613 26.7404 32.1609 28.3542C30.9605 29.9679 30.3588 31.9523 30.4598 33.9645C30.4673 34.4101 30.5236 34.8534 30.6276 35.2866C30.6338 35.3147 30.6423 35.3421 30.6493 35.3702C30.6625 35.4295 30.6757 35.4896 30.6905 35.5497H30.6967C31.0251 36.6927 31.6804 37.7137 32.5813 38.4858C33.4821 39.2579 34.5888 39.7472 35.7639 39.8929C36.939 40.0386 38.1309 39.8342 39.1914 39.3053C40.252 38.7763 41.1346 37.946 41.7297 36.9174C42.3248 35.8889 42.6062 34.7073 42.5388 33.5195C42.4715 32.3317 42.0585 31.1898 41.351 30.2358C40.6436 29.2818 39.6728 28.5575 38.5594 28.153C37.4459 27.7484 36.2386 27.6814 35.0876 27.9602V27.9579ZM23.9453 7.27494C23.3593 5.87652 22.3229 4.71633 21.0023 3.9804C19.6818 3.24447 18.1535 2.97543 16.6626 3.2164L16.8335 4.28254C17.9329 4.10178 19.061 4.25308 20.0748 4.71728C19.7338 4.69701 19.3916 4.71403 19.0542 4.76801C18.0872 4.92571 17.1946 5.38646 16.5038 6.08445C15.8131 6.78243 15.3596 7.68193 15.208 8.65444C15.0565 9.62694 15.2148 10.6227 15.6602 11.4994C16.1056 12.3761 16.8153 13.089 17.6881 13.5361C18.5608 13.9832 19.5518 14.1417 20.5196 13.9889C21.4874 13.8362 22.3823 13.38 23.0766 12.6855C23.7708 11.9911 24.2289 11.0939 24.3854 10.1222C24.5418 9.15046 24.3886 8.15392 23.9476 7.27494H23.9453ZM17.1364 16.7321L7.9088 11.8759L6.41514 11.0767C5.24227 10.4887 4.65634 9.54694 4.65738 8.25133C4.65738 8.14284 4.66283 8.03747 4.67059 7.93367C4.67059 7.88918 4.66282 7.84469 4.66126 7.80021C4.61932 6.86362 5.11021 5.78499 5.76189 5.13016C6.03594 4.85842 6.35039 4.63118 6.69398 4.4566C4.69 5.34943 2.9891 6.81084 1.8001 8.66139C0.611102 10.5119 -0.0142451 12.6711 0.000846876 14.8738C-0.0153383 16.8786 0.516651 18.8495 1.53879 20.5713C2.52568 22.2713 3.9334 23.6858 5.62519 24.6775L18.9851 31.6535C20.1564 32.243 20.7423 33.2144 20.7428 34.5678C20.7428 35.5689 20.4205 36.3341 19.7758 36.8632C18.6799 37.9701 17.3821 38.8546 15.9535 39.4685L16.2603 39.9985C17.7859 39.36 19.1736 38.4302 20.3467 37.2605C21.5027 36.0934 22.4274 34.7161 23.0715 33.202C23.7476 31.627 24.0914 29.9283 24.0812 28.2131C24.0812 25.6822 23.4368 23.4009 22.1479 21.369C20.8591 19.3371 19.1886 17.7912 17.1364 16.7313V16.7321Z" fill="url(#paint0_linear_1648_5319)"/>
<path d="M77.7404 14.528C77.7404 13.9754 77.9385 13.7983 78.4006 13.9754C79.4353 14.3516 80.6454 14.5506 82.0513 14.5506C84.3178 14.5506 85.3299 14.0636 85.3299 12.6705C85.3299 11.609 84.78 11.1009 83.3057 10.194L80.0481 8.18187C78.5956 7.29732 77.8693 6.12528 77.8693 4.66577C77.8693 2.38831 79.3879 1.39319 82.4692 1.39319C83.7679 1.39319 84.8683 1.57009 85.7703 1.92391C86.2985 2.12294 86.4305 2.21113 86.4305 2.74186V3.02909C86.4305 3.58245 86.2325 3.73698 85.7703 3.55981C84.8242 3.20599 83.7239 3.02909 82.4692 3.02909C80.4442 3.02909 79.6302 3.51611 79.6302 4.73211C79.6302 5.68274 80.0923 6.12528 81.1705 6.83319L84.4941 8.91162C86.1882 9.97309 87.0682 10.8792 87.0682 12.6486C87.0682 15.015 85.3742 16.1865 82.007 16.1865C80.599 16.1865 79.4106 16.0096 78.4418 15.6558C77.9579 15.4568 77.7373 15.3904 77.7373 14.8379L77.7404 14.528Z" fill="#112A45"/>
<path d="M89.1406 11.545V9.4884C89.1406 6.39298 90.7469 4.84528 93.982 4.84528C97.3935 4.84528 98.7799 6.45932 98.7799 9.4884V11.545C98.7799 14.6412 97.1736 16.1889 93.982 16.1889C90.5489 16.1865 89.1406 14.5725 89.1406 11.545ZM97.1317 9.48605C97.1317 7.36313 96.3829 6.41249 93.9843 6.41249C91.5415 6.41249 90.7935 7.36313 90.7935 9.48605V11.545C90.7935 13.6679 91.5858 14.6193 93.9843 14.6193C96.3829 14.6193 97.1317 13.6656 97.1317 11.545V9.48605Z" fill="#112A45"/>
<path d="M100.167 5.92547C100.167 5.41659 100.299 5.30654 100.761 5.2402L102.015 5.06303V3.424C102.015 1.14654 103.248 -0.00311279 105.712 -0.00311279C106.274 0.00445107 106.834 0.0637576 107.385 0.174059C107.935 0.284108 108.067 0.416787 108.067 0.969372V1.1684C108.067 1.72177 107.912 1.85445 107.385 1.74362C106.858 1.62755 106.319 1.56816 105.778 1.56645C104.37 1.56645 103.666 2.14167 103.666 3.31396V5.06693H107.143C107.693 5.06693 107.825 5.19962 107.825 5.7522V5.95122C107.825 6.50381 107.693 6.63727 107.143 6.63727H103.666V15.2609C103.666 15.858 103.51 15.9688 102.962 15.9688H102.72C102.125 15.9688 102.015 15.858 102.015 15.2609V6.63415H100.761C100.255 6.63415 100.167 6.54518 100.167 6.03708V5.92547Z" fill="#112A45"/>
<path d="M108.463 5.92545C108.463 5.41657 108.595 5.30652 109.058 5.24018L110.312 5.06301L110.554 2.78555C110.576 2.31726 110.71 2.18848 111.215 2.18848H111.37C111.832 2.18848 111.964 2.32116 111.964 2.78555V5.06692H115.529C116.079 5.06692 116.211 5.1996 116.211 5.75219V5.95121C116.211 6.50379 116.079 6.63726 115.529 6.63726H111.964V12.2568C111.964 13.9598 112.669 14.5982 113.989 14.5982C114.759 14.5982 115.419 14.5319 115.947 14.3774C116.454 14.2665 116.607 14.3992 116.607 14.9526V15.1516C116.607 15.5934 116.475 15.7924 115.925 15.9477C115.299 16.1023 114.656 16.1766 114.011 16.1686C111.546 16.1686 110.314 14.8639 110.314 12.2544V6.63491H109.059C108.553 6.63491 108.465 6.54594 108.465 6.03784L108.463 5.92545Z" fill="#112A45"/>
<path d="M120.788 13.511C120.898 14.3953 121.228 14.727 121.844 14.727C122.461 14.727 122.79 14.3953 122.901 13.511L123.891 7.20858C124.133 5.63901 124.639 5.0638 125.96 5.0638C127.214 5.0638 127.764 5.61638 128.028 7.20858L129.018 13.511C129.129 14.3953 129.459 14.727 130.075 14.727C130.669 14.727 131.021 14.329 131.131 13.511L132.341 5.76936C132.43 5.21599 132.562 5.06146 133.156 5.06146H133.442C133.992 5.06146 134.124 5.17229 134.036 5.76936L132.826 13.3978C132.496 15.3662 131.836 16.1842 130.075 16.1842C128.468 16.1842 127.786 15.3662 127.5 13.3978L126.642 7.64877C126.532 6.69814 126.377 6.47804 125.96 6.47804C125.542 6.47804 125.365 6.74341 125.255 7.64877L124.401 13.3978C124.115 15.3662 123.455 16.1842 121.848 16.1842C120.087 16.1842 119.427 15.4107 119.097 13.3978L117.909 5.76936C117.821 5.17229 117.953 5.06146 118.503 5.06146H118.767C119.361 5.06146 119.493 5.21756 119.581 5.76936L120.788 13.511Z" fill="#112A45"/>
<path d="M144.336 12.6931C144.336 15.1477 142.905 16.1865 139.736 16.1865C137.206 16.1865 135.599 15.1719 135.599 12.8695C135.599 10.567 137.095 9.64136 140.088 9.64136H142.686V8.31453C142.686 6.81053 141.676 6.30165 139.802 6.30165C138.834 6.30165 138.02 6.39063 137.381 6.54516C136.853 6.65599 136.677 6.52331 136.677 5.99258V5.81541C136.677 5.30731 136.81 5.17463 137.338 5.0638C138.12 4.90756 138.917 4.83354 139.715 4.84292C142.795 4.84292 144.336 5.99258 144.336 8.31453V12.6931ZM142.686 10.9463H140.111C138.152 10.9463 137.249 11.4771 137.249 12.8695C137.249 14.1299 138.064 14.7497 139.715 14.7497C141.739 14.7497 142.686 14.2814 142.686 12.6267V10.9463Z" fill="#112A45"/>
<path d="M148.363 15.2578C148.363 15.8548 148.253 15.9657 147.659 15.9657H147.417C146.867 15.9657 146.713 15.8548 146.713 15.2578V8.66811C146.713 6.12528 147.967 4.84372 150.476 4.84372C150.711 4.84531 150.946 4.8599 151.18 4.88742C151.731 4.95376 151.84 5.10908 151.84 5.66167V5.88254C151.84 6.43591 151.708 6.54596 151.158 6.45776C150.894 6.43591 150.674 6.41328 150.476 6.41328C148.892 6.41328 148.363 7.16567 148.363 8.75474V15.2578Z" fill="#112A45"/>
<path d="M161.854 10.4593C161.788 11.0127 161.656 11.1454 161.062 11.1454H154.416V11.808C154.416 13.8209 155.406 14.6178 157.848 14.6178C158.861 14.615 159.868 14.4734 160.842 14.1971C161.37 14.041 161.546 14.2197 161.546 14.7723V14.9713C161.546 15.4357 161.458 15.5903 160.864 15.7674C159.884 16.0551 158.869 16.1966 157.848 16.1873C154.393 16.1873 152.765 14.8386 152.765 11.5661V9.50948C152.765 6.38753 154.306 4.84372 157.409 4.84372C160.314 4.84372 161.92 6.34694 161.92 9.26597C161.927 9.66483 161.905 10.0637 161.854 10.4593ZM154.416 9.74986H160.358V9.02011C160.358 7.22499 159.368 6.32196 157.387 6.32196C155.406 6.32196 154.417 7.22889 154.417 9.02011L154.416 9.74986Z" fill="#112A45"/>
<path d="M89.8853 38.9885C90.0407 39.5418 89.9288 39.7182 89.3354 39.7182H89.1148C88.5206 39.7182 88.3225 39.5855 88.1687 38.9885L87.1341 35.2718H80.5544L79.5447 38.9861C79.3893 39.5832 79.1928 39.7159 78.5986 39.7159H78.3562C77.762 39.7159 77.6525 39.5395 77.8063 38.9861L80.7579 28.3941C81.1098 27.1336 81.4842 26.2712 81.8803 25.8295C82.2982 25.3612 82.9584 25.1434 83.861 25.1434C84.7635 25.1434 85.423 25.3651 85.8191 25.8295C86.2378 26.2712 86.6114 27.1336 86.9415 28.3941L89.8853 38.9885ZM80.9754 33.7038H86.7194L85.2008 28.1975C84.8707 26.9815 84.5849 26.6934 83.8587 26.6934C83.0881 26.6934 82.824 26.9815 82.4939 28.1975L80.9754 33.7038Z" fill="#112A45"/>
<path d="M96.1997 24.9467C96.1997 24.3497 96.31 24.2388 96.9034 24.2388H97.1458C97.6965 24.2388 97.8503 24.3497 97.8503 24.9467V36.5986C97.8503 37.7264 98.2247 38.2798 98.9727 38.2798H99.0822C99.6329 38.2798 99.7649 38.3235 99.7649 38.8542V39.0103C99.7649 39.5629 99.6546 39.7401 99.1482 39.8283C99.0174 39.8478 98.885 39.8551 98.7528 39.8501C97.2343 39.8501 96.1997 38.944 96.1997 36.8843V24.9467Z" fill="#112A45"/>
<path d="M105.818 24.9467C105.818 24.3497 105.928 24.2388 106.522 24.2388H106.763C107.314 24.2388 107.468 24.3497 107.468 24.9467V36.5986C107.468 37.7264 107.842 38.2798 108.59 38.2798H108.705C109.255 38.2798 109.387 38.3235 109.387 38.8542V39.0103C109.387 39.5629 109.277 39.7401 108.771 39.8283C108.64 39.8477 108.507 39.855 108.375 39.8501C106.856 39.8501 105.822 38.944 105.822 36.8843L105.818 24.9467Z" fill="#112A45"/>
<path d="M117.548 25.4111C117.55 25.551 117.524 25.6898 117.471 25.8194C117.419 25.949 117.341 26.0667 117.243 26.1657C117.144 26.2646 117.027 26.3427 116.898 26.3954C116.769 26.4481 116.631 26.4744 116.492 26.4726C115.875 26.4726 115.391 26.0043 115.391 25.4111C115.392 25.2673 115.422 25.1251 115.478 24.9928C115.534 24.8604 115.615 24.7405 115.718 24.6398C115.82 24.5392 115.941 24.4598 116.074 24.4063C116.207 24.3527 116.349 24.3261 116.492 24.3278C116.632 24.3285 116.771 24.3572 116.9 24.4121C117.029 24.4671 117.147 24.5473 117.245 24.648C117.343 24.7488 117.42 24.8681 117.473 24.9991C117.525 25.13 117.55 25.2701 117.548 25.4111ZM115.655 29.5243C115.655 28.9717 115.765 28.8164 116.36 28.8164H116.601C117.151 28.8164 117.306 28.9725 117.306 29.5243V39.0111C117.306 39.6082 117.15 39.7182 116.601 39.7182H116.36C115.765 39.7182 115.655 39.6082 115.655 39.0111V29.5243Z" fill="#112A45"/>
<path d="M132.82 36.4425C132.82 38.8972 131.389 39.9368 128.22 39.9368C125.69 39.9368 124.083 38.9222 124.083 36.6197C124.083 34.3173 125.579 33.3908 128.573 33.3908H131.17V32.064C131.17 30.5608 130.16 30.0519 128.286 30.0519C127.319 30.0519 126.505 30.1401 125.866 30.2954C125.338 30.4055 125.162 30.2728 125.162 29.7421V29.5657C125.162 29.0568 125.294 28.9241 125.822 28.8133C126.604 28.657 127.401 28.583 128.199 28.5924C131.28 28.5924 132.82 29.7421 132.82 32.064V36.4425ZM131.17 34.6958H128.595C126.636 34.6958 125.734 35.2265 125.734 36.6197C125.734 37.8802 126.548 38.4991 128.199 38.4991C130.224 38.4991 131.17 38.0308 131.17 36.3762V34.6958Z" fill="#112A45"/>
<path d="M141.25 39.0111C141.25 39.6082 141.14 39.7182 140.546 39.7182H140.304C139.753 39.7182 139.6 39.6082 139.6 39.0111V32.7305C139.6 29.9668 141.14 28.5939 144.199 28.5939C147.434 28.5939 148.777 30.0534 148.777 32.7305V39.0111C148.777 39.6082 148.666 39.7182 148.072 39.7182H147.808C147.214 39.7182 147.104 39.6082 147.104 39.0111V32.7305C147.104 30.9612 146.422 30.1658 144.199 30.1658C141.976 30.1658 141.247 30.9838 141.247 32.7305L141.25 39.0111Z" fill="#112A45"/>
<path d="M155.553 33.1731C155.553 30.2759 157.115 28.5955 160.461 28.5955C161.187 28.5955 161.825 28.6837 162.397 28.8827C162.925 29.0599 163.057 29.2145 163.057 29.7233V29.9442C163.057 30.4976 162.925 30.6521 162.397 30.4749C161.789 30.2621 161.148 30.1565 160.504 30.1627C158.04 30.1627 157.204 31.1352 157.204 33.1918V35.3366C157.204 37.5703 158.193 38.3665 160.636 38.3665C161.385 38.3665 162.045 38.2783 162.617 38.0792C163.123 37.9021 163.277 38.0792 163.277 38.6318V38.8527C163.277 39.3171 163.122 39.4943 162.573 39.6496C161.91 39.8511 161.22 39.948 160.527 39.9368C157.159 39.9368 155.556 38.4773 155.556 35.3592L155.553 33.1731Z" fill="#112A45"/>
<path d="M177.934 34.2119C177.868 34.7653 177.736 34.898 177.142 34.898H170.496V35.5614C170.496 37.5735 171.485 38.3711 173.928 38.3711C174.94 38.3682 175.947 38.227 176.922 37.9512C177.45 37.7951 177.625 37.9731 177.625 38.5257V38.7247C177.625 39.193 177.538 39.3444 176.943 39.5208C175.964 39.8091 174.948 39.9509 173.928 39.9415C170.473 39.9415 168.845 38.592 168.845 35.3194V33.2628C168.845 30.1409 170.385 28.5971 173.489 28.5971C176.394 28.5971 178 30.1011 178 33.0201C178.006 33.4185 177.984 33.8168 177.934 34.2119ZM170.496 33.5048H176.436V32.7742C176.436 30.9791 175.446 30.0761 173.465 30.0761C171.485 30.0761 170.495 30.983 170.495 32.7742L170.496 33.5048Z" fill="#112A45"/>
</g>
<defs>
<linearGradient id="paint0_linear_1648_5319" x1="-0.000706595" y1="21.5633" x2="62.7767" y2="21.5633" gradientUnits="userSpaceOnUse">
<stop stop-color="#D1232A"/>
<stop offset="0.15" stop-color="#C02D4E"/>
<stop offset="0.36" stop-color="#AB397E"/>
<stop offset="0.47" stop-color="#A23E90"/>
<stop offset="0.58" stop-color="#903C8F"/>
<stop offset="0.8" stop-color="#60368B"/>
<stop offset="1" stop-color="#303187"/>
</linearGradient>
<clipPath id="clip0_1648_5319">
<rect width="178" height="40" fill="white"/>
</clipPath>
</defs>
</svg>
